<svg width="433" height="433" viewBox="0 0 433 433" fill="none" xmlns="http://www.w3.org/2000/svg">
<rect width="433" height="433" fill="#B15C23"/>
<path d="M33.0324 174V155.818H43.5793V157.31H34.6926V164.154H43.02V165.646H34.6926V172.509H43.7569V174H33.0324ZM49.128 155.818L49.128 174H47.5477L47.5477 155.818H49.128ZM58.8226 174.284C57.5501 174.284 56.4492 173.988 55.52 173.396C54.5908 172.799 53.8717 171.973 53.3627 170.919C52.8596 169.86 52.6081 168.641 52.6081 167.262C52.6081 165.889 52.8596 164.669 53.3627 163.604C53.8717 162.533 54.573 161.695 55.4668 161.092C56.3664 160.482 57.4051 160.177 58.5829 160.177C59.3227 160.177 60.0359 160.313 60.7224 160.586C61.409 160.852 62.0245 161.263 62.569 161.82C63.1195 162.37 63.5545 163.065 63.8741 163.906C64.1937 164.74 64.3535 165.729 64.3535 166.871V167.652H53.7001V166.259H62.7377C62.7377 165.383 62.5601 164.595 62.205 163.897C61.8558 163.193 61.3676 162.636 60.7402 162.228C60.1187 161.82 59.3996 161.615 58.5829 161.615C57.7188 161.615 56.9582 161.846 56.3013 162.308C55.6443 162.77 55.1294 163.379 54.7565 164.137C54.3896 164.894 54.2031 165.723 54.1972 166.623V167.457C54.1972 168.54 54.3837 169.487 54.7565 170.298C55.1353 171.103 55.6709 171.727 56.3634 172.171C57.0559 172.615 57.8756 172.837 58.8226 172.837C59.4677 172.837 60.0329 172.736 60.5182 172.535C61.0095 172.334 61.4208 172.065 61.7523 171.727C62.0896 171.384 62.3441 171.008 62.5158 170.6L64.0161 171.088C63.809 171.662 63.4686 172.192 62.9952 172.677C62.5276 173.163 61.9417 173.553 61.2373 173.849C60.539 174.139 59.734 174.284 58.8226 174.284ZM67.8358 174V160.364H69.3717V162.459H69.5137C69.786 161.754 70.2387 161.201 70.872 160.799C71.5112 160.39 72.2777 160.186 73.1714 160.186C74.1124 160.186 74.8848 160.408 75.4885 160.852C76.0981 161.29 76.5538 161.894 76.8557 162.663H76.9711C77.2789 161.905 77.779 161.305 78.4715 160.861C79.1698 160.411 80.0162 160.186 81.0105 160.186C82.2771 160.186 83.2773 160.586 84.0112 161.385C84.7451 162.178 85.1121 163.338 85.1121 164.865V174H83.5318V164.865C83.5318 163.788 83.2566 162.98 82.7062 162.441C82.1558 161.902 81.4307 161.633 80.5311 161.633C79.4895 161.633 78.6875 161.953 78.1252 162.592C77.563 163.231 77.2818 164.042 77.2818 165.025V174H75.6661V164.723C75.6661 163.799 75.4086 163.054 74.8937 162.485C74.3788 161.917 73.6537 161.633 72.7186 161.633C72.0912 161.633 71.526 161.787 71.0229 162.095C70.5258 162.403 70.1322 162.832 69.8422 163.382C69.5581 163.927 69.4161 164.554 69.4161 165.264V174H67.8358ZM94.8089 174.284C93.5364 174.284 92.4356 173.988 91.5063 173.396C90.5771 172.799 89.858 171.973 89.349 170.919C88.846 169.86 88.5944 168.641 88.5944 167.262C88.5944 165.889 88.846 164.669 89.349 163.604C89.858 162.533 90.5594 161.695 91.4531 161.092C92.3527 160.482 93.3914 160.177 94.5692 160.177C95.309 160.177 96.0222 160.313 96.7088 160.586C97.3953 160.852 98.0108 161.263 98.5554 161.82C99.1058 162.37 99.5408 163.065 99.8604 163.906C100.18 164.74 100.34 165.729 100.34 166.871V167.652L89.6864 167.652V166.259L98.724 166.259C98.724 165.383 98.5465 164.595 98.1914 163.897C97.8422 163.193 97.3539 162.636 96.7265 162.228C96.1051 161.82 95.386 161.615 94.5692 161.615C93.7051 161.615 92.9446 161.846 92.2876 162.308C91.6306 162.77 91.1157 163.379 90.7429 164.137C90.3759 164.894 90.1895 165.723 90.1835 166.623V167.457C90.1835 168.54 90.37 169.487 90.7429 170.298C91.1216 171.103 91.6573 171.727 92.3497 172.171C93.0422 172.615 93.8619 172.837 94.8089 172.837C95.454 172.837 96.0193 172.736 96.5046 172.535C96.9958 172.334 97.4072 172.065 97.7386 171.727C98.0759 171.384 98.3304 171.008 98.5021 170.6L100.002 171.088C99.7953 171.662 99.455 172.192 98.9815 172.677C98.5139 173.163 97.928 173.553 97.2237 173.849C96.5253 174.139 95.7204 174.284 94.8089 174.284ZM105.402 165.477V174H103.822V160.364H105.358V162.503H105.5C105.82 161.805 106.317 161.246 106.992 160.825C107.672 160.399 108.513 160.186 109.513 160.186C110.43 160.186 111.235 160.378 111.928 160.763C112.626 161.142 113.168 161.701 113.552 162.441C113.943 163.181 114.138 164.089 114.138 165.167V174H112.558V165.264C112.558 164.146 112.244 163.261 111.617 162.61C110.995 161.959 110.161 161.633 109.113 161.633C108.397 161.633 107.761 161.787 107.205 162.095C106.648 162.403 106.207 162.846 105.882 163.426C105.562 164.001 105.402 164.684 105.402 165.477ZM123.671 160.364V161.74H117.163V160.364H123.671ZM119.196 157.097H120.785V170.44C120.785 171.008 120.883 171.455 121.078 171.781C121.274 172.1 121.528 172.328 121.842 172.464C122.156 172.594 122.49 172.659 122.845 172.659C123.052 172.659 123.23 172.648 123.378 172.624C123.526 172.594 123.656 172.565 123.768 172.535L124.106 173.964C123.952 174.024 123.763 174.077 123.538 174.124C123.313 174.178 123.035 174.204 122.703 174.204C122.123 174.204 121.564 174.077 121.025 173.822C120.492 173.568 120.055 173.189 119.711 172.686C119.368 172.183 119.196 171.559 119.196 170.813V157.097ZM134.948 166.33C134.948 164.199 135.217 162.187 135.756 160.293C136.294 158.399 137.067 156.623 138.073 154.966H139.511C139.079 155.664 138.682 156.454 138.321 157.336C137.966 158.218 137.659 159.159 137.398 160.159C137.138 161.16 136.936 162.184 136.794 163.231C136.652 164.273 136.581 165.306 136.581 166.33C136.581 167.697 136.706 169.076 136.954 170.467C137.203 171.857 137.546 173.177 137.984 174.426C138.428 175.675 138.937 176.764 139.511 177.693H138.073C137.067 176.03 136.294 174.252 135.756 172.358C135.217 170.464 134.948 168.454 134.948 166.33ZM147.716 172.047H146.26L142.674 166.72V166.543H144.21L147.716 172.047ZM147.716 161.145L144.21 166.649H142.674V166.472L146.26 161.145H147.716ZM152.262 172.047H150.806L147.219 166.72V166.543H148.755L152.262 172.047ZM152.262 161.145L148.755 166.649H147.219V166.472L150.806 161.145H152.262ZM161.663 174.284C160.444 174.284 159.382 173.979 158.476 173.37C157.577 172.76 156.878 171.926 156.381 170.866C155.884 169.807 155.635 168.599 155.635 167.244C155.635 165.877 155.887 164.661 156.39 163.595C156.899 162.53 157.603 161.695 158.503 161.092C159.403 160.482 160.447 160.177 161.637 160.177C162.548 160.177 163.374 160.355 164.114 160.71C164.854 161.059 165.463 161.553 165.943 162.192C166.428 162.826 166.733 163.566 166.857 164.412H165.259C165.093 163.643 164.694 162.986 164.061 162.441C163.433 161.891 162.634 161.615 161.663 161.615C160.793 161.615 160.024 161.852 159.355 162.326C158.686 162.793 158.163 163.447 157.784 164.288C157.411 165.122 157.225 166.09 157.225 167.191C157.225 168.297 157.408 169.277 157.775 170.129C158.142 170.976 158.657 171.638 159.32 172.118C159.989 172.597 160.77 172.837 161.663 172.837C162.267 172.837 162.818 172.725 163.315 172.5C163.818 172.269 164.238 171.943 164.575 171.523C164.919 171.103 165.15 170.603 165.268 170.023H166.866C166.748 170.845 166.455 171.579 165.987 172.224C165.525 172.864 164.925 173.367 164.185 173.734C163.451 174.101 162.61 174.284 161.663 174.284ZM169.125 161.855V160.364H179.779V161.855H175.269V174H173.689V161.855H169.125ZM184.699 171.754L191.899 160.364H193.79V174H192.21V162.61L185.037 174H183.119V160.364H184.699V171.754ZM198.939 160.364L202.455 166.179L205.971 160.364H207.808L203.423 167.182L207.808 174H205.971L202.455 168.371L198.939 174H197.11L201.443 167.182L197.11 160.364H198.939ZM212.702 171.754L219.902 160.364H221.793V174H220.213V162.61L213.04 174H211.122V160.364H212.702V171.754ZM234.169 174V161.828H230.413C229.437 161.834 228.694 162.039 228.185 162.441C227.682 162.844 227.431 163.444 227.431 164.243C227.431 165.042 227.67 165.643 228.15 166.045C228.629 166.442 229.327 166.64 230.245 166.64H234.613V168.132H230.245C229.304 168.132 228.505 167.981 227.848 167.679C227.197 167.377 226.7 166.936 226.356 166.356C226.013 165.776 225.841 165.072 225.841 164.243C225.841 163.409 226.016 162.704 226.365 162.13C226.72 161.55 227.238 161.112 227.919 160.816C228.605 160.515 229.437 160.364 230.413 160.364H235.678V174H234.169ZM224.98 174L228.904 167.217H230.635L226.711 174H224.98ZM242.51 171.514L242.35 172.464C242.249 173.103 242.107 173.808 241.924 174.577C241.74 175.346 241.551 176.077 241.355 176.77C241.16 177.462 240.991 178.019 240.849 178.439H239.633C239.71 178.036 239.808 177.525 239.926 176.903C240.05 176.282 240.178 175.592 240.308 174.835C240.438 174.083 240.556 173.308 240.663 172.509L240.787 171.514H242.51ZM258.483 172.047H257.027L253.44 166.72V166.543H254.976L258.483 172.047ZM258.483 161.145L254.976 166.649H253.44V166.472L257.027 161.145H258.483ZM263.028 172.047H261.572L257.986 166.72V166.543H259.522L263.028 172.047ZM263.028 161.145L259.522 166.649H257.986V166.472L261.572 161.145H263.028ZM271.4 161.686C270.838 161.692 270.293 161.828 269.767 162.095C269.24 162.361 268.808 162.713 268.471 163.151C268.133 163.589 267.965 164.069 267.965 164.589H266.402C266.402 164.009 266.538 163.456 266.81 162.929C267.089 162.403 267.461 161.935 267.929 161.527C268.397 161.112 268.929 160.787 269.527 160.55C270.131 160.313 270.755 160.195 271.4 160.195C272.572 160.195 273.581 160.506 274.428 161.127C275.274 161.749 275.922 162.571 276.372 163.595C276.828 164.619 277.055 165.741 277.055 166.96V167.457C277.055 168.67 276.828 169.795 276.372 170.831C275.916 171.86 275.265 172.689 274.419 173.316C273.572 173.938 272.566 174.249 271.4 174.249C270.459 174.249 269.61 174.036 268.852 173.609C268.101 173.183 267.503 172.612 267.059 171.896C266.621 171.174 266.402 170.375 266.402 169.499H267.965C267.965 170.073 268.124 170.609 268.444 171.106C268.769 171.597 269.193 171.994 269.713 172.295C270.234 172.597 270.797 172.751 271.4 172.757C272.223 172.751 272.939 172.494 273.549 171.985C274.164 171.47 274.638 170.81 274.969 170.005C275.301 169.194 275.466 168.345 275.466 167.457V166.96C275.466 166.06 275.301 165.211 274.969 164.412C274.644 163.607 274.176 162.953 273.566 162.45C272.957 161.947 272.235 161.692 271.4 161.686ZM276.123 166.401V167.892H269.891V166.401H276.123ZM279.191 174V172.509H279.617C280.102 172.509 280.493 172.42 280.789 172.242C281.09 172.059 281.324 171.751 281.49 171.319C281.656 170.887 281.78 170.298 281.863 169.552C281.946 168.806 282.011 167.871 282.058 166.747L282.351 160.364H291.016V174H289.427V161.855H283.851L283.594 167.279C283.541 168.386 283.452 169.36 283.328 170.2C283.209 171.041 283.014 171.742 282.742 172.304C282.475 172.867 282.102 173.29 281.623 173.574C281.15 173.858 280.528 174 279.759 174H279.191ZM300.717 174.284C299.445 174.284 298.344 173.988 297.415 173.396C296.485 172.799 295.766 171.973 295.257 170.919C294.754 169.86 294.503 168.641 294.503 167.262C294.503 165.889 294.754 164.669 295.257 163.604C295.766 162.533 296.468 161.695 297.361 161.092C298.261 160.482 299.3 160.177 300.477 160.177C301.217 160.177 301.93 160.313 302.617 160.586C303.304 160.852 303.919 161.263 304.464 161.82C305.014 162.37 305.449 163.065 305.769 163.906C306.088 164.74 306.248 165.729 306.248 166.871V167.652H295.595V166.259H304.632C304.632 165.383 304.455 164.595 304.1 163.897C303.75 163.193 303.262 162.636 302.635 162.228C302.013 161.82 301.294 161.615 300.477 161.615C299.613 161.615 298.853 161.846 298.196 162.308C297.539 162.77 297.024 163.379 296.651 164.137C296.284 164.894 296.098 165.723 296.092 166.623V167.457C296.092 168.54 296.278 169.487 296.651 170.298C297.03 171.103 297.565 171.727 298.258 172.171C298.95 172.615 299.77 172.837 300.717 172.837C301.362 172.837 301.927 172.736 302.413 172.535C302.904 172.334 303.315 172.065 303.647 171.727C303.984 171.384 304.239 171.008 304.41 170.6L305.911 171.088C305.703 171.662 305.363 172.192 304.89 172.677C304.422 173.163 303.836 173.553 303.132 173.849C302.433 174.139 301.629 174.284 300.717 174.284ZM316.859 171.789L321.982 160.364H323.518L317.49 174H316.229L310.272 160.364H311.781L316.859 171.789ZM311.311 160.364V174H309.73V160.364H311.311ZM322.408 174V160.364H323.988V174H322.408ZM333.701 174.284C332.428 174.284 331.327 173.988 330.398 173.396C329.469 172.799 328.75 171.973 328.241 170.919C327.738 169.86 327.486 168.641 327.486 167.262C327.486 165.889 327.738 164.669 328.241 163.604C328.75 162.533 329.451 161.695 330.345 161.092C331.244 160.482 332.283 160.177 333.461 160.177C334.201 160.177 334.914 160.313 335.6 160.586C336.287 160.852 336.902 161.263 337.447 161.82C337.997 162.37 338.432 163.065 338.752 163.906C339.072 164.74 339.231 165.729 339.231 166.871V167.652H328.578V166.259H337.616C337.616 165.383 337.438 164.595 337.083 163.897C336.734 163.193 336.245 162.636 335.618 162.228C334.997 161.82 334.278 161.615 333.461 161.615C332.597 161.615 331.836 161.846 331.179 162.308C330.522 162.77 330.007 163.379 329.634 164.137C329.268 164.894 329.081 165.723 329.075 166.623V167.457C329.075 168.54 329.262 169.487 329.634 170.298C330.013 171.103 330.549 171.727 331.241 172.171C331.934 172.615 332.754 172.837 333.701 172.837C334.346 172.837 334.911 172.736 335.396 172.535C335.887 172.334 336.299 172.065 336.63 171.727C336.968 171.384 337.222 171.008 337.394 170.6L338.894 171.088C338.687 171.662 338.347 172.192 337.873 172.677C337.406 173.163 336.82 173.553 336.115 173.849C335.417 174.139 334.612 174.284 333.701 174.284ZM351.92 166.445V167.936H343.903V166.445H351.92ZM344.294 160.364V174H342.714V160.364H344.294ZM353.083 160.364V174H351.503V160.364H353.083ZM355.38 161.855V160.364H366.034V161.855H361.524V174H359.943V161.855H355.38ZM369.161 172.047L372.659 166.543H374.203V166.72L370.617 172.047H369.161ZM369.161 161.145H370.617L374.203 166.472V166.649H372.659L369.161 161.145ZM373.768 172.047L377.266 166.543H378.811V166.72L375.224 172.047H373.768ZM373.768 161.145H375.224L378.811 166.472V166.649H377.266L373.768 161.145ZM386.637 166.33C386.637 168.46 386.368 170.473 385.829 172.366C385.29 174.26 384.518 176.036 383.512 177.693H382.074C382.506 176.995 382.899 176.205 383.254 175.323C383.615 174.441 383.926 173.5 384.187 172.5C384.447 171.499 384.648 170.475 384.79 169.428C384.932 168.38 385.003 167.348 385.003 166.33C385.003 164.962 384.879 163.583 384.63 162.192C384.382 160.802 384.036 159.482 383.592 158.233C383.154 156.984 382.648 155.895 382.074 154.966H383.512C384.518 156.629 385.29 158.408 385.829 160.301C386.368 162.195 386.637 164.205 386.637 166.33ZM89.4067 195.46V196.951H64.4067V195.46H89.4067ZM102.333 204.311C101.51 204.311 100.759 204.151 100.078 203.831C99.3973 203.506 98.8557 203.038 98.4533 202.429C98.0508 201.813 97.8496 201.067 97.8496 200.191C97.8496 199.517 97.9768 198.949 98.2313 198.487C98.4858 198.025 98.8468 197.646 99.3144 197.35C99.782 197.055 100.335 196.821 100.975 196.649C101.614 196.478 102.318 196.344 103.087 196.25C103.851 196.155 104.496 196.072 105.023 196.001C105.556 195.93 105.961 195.818 106.239 195.664C106.517 195.51 106.656 195.261 106.656 194.918V194.598C106.656 193.669 106.378 192.938 105.822 192.406C105.271 191.867 104.478 191.598 103.443 191.598C102.46 191.598 101.658 191.814 101.037 192.246C100.421 192.678 99.9891 193.187 99.7405 193.773L98.2402 193.231C98.548 192.485 98.9741 191.891 99.5186 191.447C100.063 190.997 100.673 190.674 101.347 190.479C102.022 190.278 102.706 190.177 103.398 190.177C103.919 190.177 104.461 190.245 105.023 190.381C105.591 190.518 106.118 190.754 106.603 191.092C107.088 191.423 107.482 191.888 107.784 192.485C108.086 193.077 108.237 193.829 108.237 194.74V204H106.656V201.843H106.559C106.369 202.245 106.088 202.636 105.715 203.015C105.342 203.393 104.875 203.704 104.313 203.947C103.75 204.189 103.09 204.311 102.333 204.311ZM102.546 202.864C103.386 202.864 104.114 202.677 104.73 202.304C105.345 201.931 105.819 201.437 106.15 200.822C106.488 200.2 106.656 199.517 106.656 198.771V196.8C106.538 196.913 106.34 197.013 106.062 197.102C105.789 197.191 105.473 197.271 105.112 197.342C104.757 197.407 104.401 197.463 104.046 197.51C103.691 197.558 103.372 197.599 103.087 197.635C102.318 197.729 101.661 197.877 101.117 198.078C100.572 198.28 100.155 198.558 99.8648 198.913C99.5748 199.262 99.4298 199.712 99.4298 200.262C99.4298 201.091 99.7257 201.733 100.318 202.189C100.909 202.639 101.652 202.864 102.546 202.864ZM112.44 209.114V190.364H113.976V192.965H114.163C114.352 192.556 114.612 192.139 114.944 191.713C115.275 191.281 115.713 190.917 116.258 190.621C116.808 190.325 117.501 190.177 118.335 190.177C119.46 190.177 120.442 190.473 121.283 191.065C122.129 191.651 122.786 192.474 123.254 193.533C123.727 194.587 123.964 195.815 123.964 197.217C123.964 198.626 123.727 199.86 123.254 200.919C122.786 201.979 122.129 202.804 121.283 203.396C120.442 203.988 119.466 204.284 118.353 204.284C117.53 204.284 116.841 204.136 116.284 203.84C115.734 203.544 115.287 203.18 114.944 202.748C114.606 202.31 114.346 201.884 114.163 201.47H114.021V209.114H112.44ZM114.003 197.191C114.003 198.292 114.166 199.268 114.491 200.12C114.823 200.967 115.296 201.633 115.912 202.118C116.533 202.597 117.285 202.837 118.167 202.837C119.072 202.837 119.836 202.588 120.457 202.091C121.084 201.588 121.561 200.911 121.886 200.058C122.218 199.206 122.383 198.25 122.383 197.191C122.383 196.143 122.221 195.199 121.895 194.359C121.576 193.518 121.102 192.852 120.475 192.361C119.847 191.864 119.078 191.615 118.167 191.615C117.279 191.615 116.524 191.855 115.903 192.335C115.281 192.808 114.808 193.465 114.482 194.305C114.163 195.14 114.003 196.102 114.003 197.191ZM127.846 190.364L131.361 196.179L134.877 190.364H136.715L132.329 197.182L136.715 204H134.877L131.361 198.371L127.846 204H126.017L130.349 197.182L126.017 190.364H127.846ZM141.608 201.754L148.808 190.364H150.699V204H149.119V192.61L141.946 204H140.028V190.364H141.608V201.754ZM152.963 191.855V190.364H163.617V191.855H159.107V204H157.526V191.855H152.963ZM171.762 204.284C170.49 204.284 169.389 203.988 168.459 203.396C167.53 202.799 166.811 201.973 166.302 200.919C165.799 199.86 165.548 198.641 165.548 197.262C165.548 195.889 165.799 194.669 166.302 193.604C166.811 192.533 167.513 191.695 168.406 191.092C169.306 190.482 170.345 190.177 171.522 190.177C172.262 190.177 172.975 190.313 173.662 190.586C174.348 190.852 174.964 191.263 175.508 191.82C176.059 192.37 176.494 193.065 176.814 193.906C177.133 194.74 177.293 195.729 177.293 196.871V197.652H166.64V196.259H175.677C175.677 195.383 175.5 194.595 175.144 193.897C174.795 193.193 174.307 192.636 173.68 192.228C173.058 191.82 172.339 191.615 171.522 191.615C170.658 191.615 169.898 191.846 169.241 192.308C168.584 192.77 168.069 193.379 167.696 194.137C167.329 194.894 167.143 195.723 167.137 196.623V197.457C167.137 198.54 167.323 199.487 167.696 200.298C168.075 201.103 168.61 201.727 169.303 202.171C169.995 202.615 170.815 202.837 171.762 202.837C172.407 202.837 172.972 202.736 173.458 202.535C173.949 202.334 174.36 202.065 174.692 201.727C175.029 201.384 175.284 201.008 175.455 200.6L176.956 201.088C176.748 201.662 176.408 202.192 175.935 202.677C175.467 203.163 174.881 203.553 174.177 203.849C173.478 204.139 172.673 204.284 171.762 204.284ZM180.775 204V190.364H182.356V196.498H183.838L188.907 190.364H190.949L185.481 196.924L191.074 204H189.032L184.326 197.99H182.356V204H180.775ZM192.831 191.855V190.364H203.485V191.855H198.975V204H197.395V191.855H192.831ZM207.926 209.114C207.612 209.114 207.319 209.084 207.047 209.025C206.775 208.966 206.559 208.901 206.399 208.83L206.825 207.436C207.364 207.601 207.843 207.661 208.263 207.613C208.683 207.572 209.056 207.382 209.382 207.045C209.707 206.714 209.997 206.205 210.252 205.518L210.749 204.133L205.733 190.364H207.447L211.495 201.914H211.619L215.667 190.364H217.381L211.61 206.157C211.368 206.814 211.069 207.362 210.714 207.8C210.358 208.244 209.947 208.572 209.48 208.785C209.018 209.004 208.5 209.114 207.926 209.114ZM220.473 209.114V190.364H222.008V192.965H222.195C222.384 192.556 222.645 192.139 222.976 191.713C223.308 191.281 223.745 190.917 224.29 190.621C224.84 190.325 225.533 190.177 226.367 190.177C227.492 190.177 228.474 190.473 229.315 191.065C230.161 191.651 230.818 192.474 231.286 193.533C231.759 194.587 231.996 195.815 231.996 197.217C231.996 198.626 231.759 199.86 231.286 200.919C230.818 201.979 230.161 202.804 229.315 203.396C228.474 203.988 227.498 204.284 226.385 204.284C225.562 204.284 224.873 204.136 224.317 203.84C223.766 203.544 223.319 203.18 222.976 202.748C222.639 202.31 222.378 201.884 222.195 201.47H222.053V209.114H220.473ZM222.035 197.191C222.035 198.292 222.198 199.268 222.523 200.12C222.855 200.967 223.328 201.633 223.944 202.118C224.565 202.597 225.317 202.837 226.199 202.837C227.104 202.837 227.868 202.588 228.489 202.091C229.117 201.588 229.593 200.911 229.919 200.058C230.25 199.206 230.416 198.25 230.416 197.191C230.416 196.143 230.253 195.199 229.927 194.359C229.608 193.518 229.134 192.852 228.507 192.361C227.88 191.864 227.11 191.615 226.199 191.615C225.311 191.615 224.556 191.855 223.935 192.335C223.313 192.808 222.84 193.465 222.514 194.305C222.195 195.14 222.035 196.102 222.035 197.191ZM244.669 196.445V197.936H236.652V196.445H244.669ZM237.043 190.364V204H235.463V190.364H237.043ZM245.832 190.364V204H244.252V190.364H245.832ZM255.338 204.284C254.16 204.284 253.119 203.985 252.213 203.387C251.313 202.79 250.609 201.964 250.1 200.911C249.591 199.851 249.337 198.629 249.337 197.244C249.337 195.847 249.591 194.619 250.1 193.56C250.609 192.494 251.313 191.666 252.213 191.074C253.119 190.476 254.16 190.177 255.338 190.177C256.516 190.177 257.555 190.476 258.454 191.074C259.354 191.672 260.058 192.5 260.567 193.56C261.082 194.619 261.339 195.847 261.339 197.244C261.339 198.629 261.085 199.851 260.576 200.911C260.067 201.964 259.36 202.79 258.454 203.387C257.555 203.985 256.516 204.284 255.338 204.284ZM255.338 202.837C256.285 202.837 257.087 202.583 257.744 202.074C258.401 201.565 258.898 200.887 259.235 200.04C259.579 199.194 259.75 198.262 259.75 197.244C259.75 196.226 259.579 195.291 259.235 194.439C258.898 193.586 258.401 192.903 257.744 192.388C257.087 191.873 256.285 191.615 255.338 191.615C254.397 191.615 253.595 191.873 252.932 192.388C252.275 192.903 251.775 193.586 251.432 194.439C251.094 195.291 250.926 196.226 250.926 197.244C250.926 198.262 251.094 199.194 251.432 200.04C251.775 200.887 252.275 201.565 252.932 202.074C253.589 202.583 254.391 202.837 255.338 202.837ZM270.322 204.284C269.049 204.284 267.948 203.988 267.019 203.396C266.09 202.799 265.371 201.973 264.862 200.919C264.359 199.86 264.107 198.641 264.107 197.262C264.107 195.889 264.359 194.669 264.862 193.604C265.371 192.533 266.072 191.695 266.966 191.092C267.865 190.482 268.904 190.177 270.082 190.177C270.822 190.177 271.535 190.313 272.221 190.586C272.908 190.852 273.524 191.263 274.068 191.82C274.618 192.37 275.053 193.065 275.373 193.906C275.693 194.74 275.852 195.729 275.852 196.871V197.652H265.199V196.259H274.237C274.237 195.383 274.059 194.595 273.704 193.897C273.355 193.193 272.867 192.636 272.239 192.228C271.618 191.82 270.899 191.615 270.082 191.615C269.218 191.615 268.457 191.846 267.8 192.308C267.143 192.77 266.628 193.379 266.256 194.137C265.889 194.894 265.702 195.723 265.696 196.623V197.457C265.696 198.54 265.883 199.487 266.256 200.298C266.634 201.103 267.17 201.727 267.862 202.171C268.555 202.615 269.375 202.837 270.322 202.837C270.967 202.837 271.532 202.736 272.017 202.535C272.509 202.334 272.92 202.065 273.251 201.727C273.589 201.384 273.843 201.008 274.015 200.6L275.515 201.088C275.308 201.662 274.968 202.192 274.494 202.677C274.027 203.163 273.441 203.553 272.736 203.849C272.038 204.139 271.233 204.284 270.322 204.284ZM296.185 185.25L297.011 186.253C296.638 186.614 296.191 186.863 295.67 186.999C295.155 187.129 294.578 187.203 293.939 187.221C293.306 187.239 292.622 187.265 291.888 187.301C290.835 187.354 289.968 187.629 289.287 188.126C288.606 188.618 288.088 189.328 287.733 190.257C287.384 191.18 287.165 192.308 287.076 193.64H287.254C287.71 192.71 288.352 192.003 289.18 191.518C290.015 191.032 290.932 190.79 291.932 190.79C292.98 190.79 293.921 191.047 294.756 191.562C295.596 192.071 296.259 192.82 296.744 193.808C297.236 194.791 297.481 195.989 297.481 197.404C297.481 198.801 297.236 200.017 296.744 201.053C296.253 202.082 295.566 202.878 294.685 203.441C293.803 204.003 292.77 204.284 291.586 204.284C290.397 204.284 289.355 204.006 288.461 203.45C287.573 202.887 286.884 202.062 286.393 200.973C285.907 199.878 285.665 198.531 285.665 196.933V195.504C285.665 192.326 286.168 189.935 287.174 188.331C288.18 186.727 289.728 185.889 291.817 185.818C292.492 185.795 293.104 185.789 293.655 185.8C294.205 185.806 294.691 185.78 295.111 185.721C295.531 185.655 295.889 185.499 296.185 185.25ZM291.586 202.837C292.468 202.837 293.232 202.615 293.877 202.171C294.522 201.721 295.019 201.088 295.368 200.271C295.723 199.455 295.901 198.499 295.901 197.404C295.901 196.315 295.72 195.386 295.359 194.616C295.004 193.847 294.507 193.258 293.868 192.849C293.229 192.441 292.48 192.237 291.622 192.237C290.947 192.237 290.34 192.367 289.802 192.627C289.269 192.882 288.813 193.246 288.435 193.719C288.056 194.193 287.766 194.749 287.565 195.388C287.363 196.028 287.26 196.729 287.254 197.493C287.254 199.144 287.639 200.449 288.408 201.408C289.183 202.361 290.243 202.837 291.586 202.837ZM306.81 196.578V198.07H300.142V196.578H306.81ZM301.412 190.364V204H299.823V190.364H301.412ZM311.382 204.284C310.204 204.284 309.165 203.985 308.265 203.387C307.366 202.79 306.659 201.964 306.144 200.911C305.635 199.851 305.38 198.629 305.38 197.244C305.38 195.847 305.635 194.619 306.144 193.56C306.659 192.494 307.366 191.666 308.265 191.074C309.165 190.476 310.204 190.177 311.382 190.177C312.559 190.177 313.598 190.476 314.498 191.074C315.403 191.672 316.111 192.5 316.62 193.56C317.129 194.619 317.383 195.847 317.383 197.244C317.383 198.629 317.129 199.851 316.62 200.911C316.111 201.964 315.403 202.79 314.498 203.387C313.598 203.985 312.559 204.284 311.382 204.284ZM311.382 202.837C312.329 202.837 313.131 202.583 313.788 202.074C314.444 201.565 314.945 200.887 315.288 200.04C315.631 199.194 315.803 198.262 315.803 197.244C315.803 196.226 315.631 195.291 315.288 194.439C314.945 193.586 314.444 192.903 313.788 192.388C313.131 191.873 312.329 191.615 311.382 191.615C310.441 191.615 309.642 191.873 308.985 192.388C308.328 192.903 307.828 193.586 307.484 194.439C307.141 195.291 306.969 196.226 306.969 197.244C306.969 198.262 307.138 199.194 307.475 200.04C307.819 200.887 308.319 201.565 308.976 202.074C309.639 202.583 310.441 202.837 311.382 202.837ZM321.107 209.114V190.364H322.643V192.965H322.83C323.019 192.556 323.279 192.139 323.611 191.713C323.942 191.281 324.38 190.917 324.925 190.621C325.475 190.325 326.168 190.177 327.002 190.177C328.127 190.177 329.109 190.473 329.95 191.065C330.796 191.651 331.453 192.474 331.92 193.533C332.394 194.587 332.631 195.815 332.631 197.217C332.631 198.626 332.394 199.86 331.92 200.919C331.453 201.979 330.796 202.804 329.95 203.396C329.109 203.988 328.133 204.284 327.02 204.284C326.197 204.284 325.508 204.136 324.951 203.84C324.401 203.544 323.954 203.18 323.611 202.748C323.273 202.31 323.013 201.884 322.83 201.47H322.688V209.114H321.107ZM322.67 197.191C322.67 198.292 322.833 199.268 323.158 200.12C323.49 200.967 323.963 201.633 324.579 202.118C325.2 202.597 325.952 202.837 326.833 202.837C327.739 202.837 328.503 202.588 329.124 202.091C329.751 201.588 330.228 200.911 330.553 200.058C330.885 199.206 331.05 198.25 331.05 197.191C331.05 196.143 330.888 195.199 330.562 194.359C330.243 193.518 329.769 192.852 329.142 192.361C328.514 191.864 327.745 191.615 326.833 191.615C325.946 191.615 325.191 191.855 324.57 192.335C323.948 192.808 323.475 193.465 323.149 194.305C322.83 195.14 322.67 196.102 322.67 197.191ZM341.398 204.284C340.22 204.284 339.178 203.985 338.273 203.387C337.373 202.79 336.669 201.964 336.16 200.911C335.651 199.851 335.396 198.629 335.396 197.244C335.396 195.847 335.651 194.619 336.16 193.56C336.669 192.494 337.373 191.666 338.273 191.074C339.178 190.476 340.22 190.177 341.398 190.177C342.575 190.177 343.614 190.476 344.514 191.074C345.413 191.672 346.118 192.5 346.627 193.56C347.142 194.619 347.399 195.847 347.399 197.244C347.399 198.629 347.145 199.851 346.636 200.911C346.127 201.964 345.419 202.79 344.514 203.387C343.614 203.985 342.575 204.284 341.398 204.284ZM341.398 202.837C342.345 202.837 343.147 202.583 343.803 202.074C344.46 201.565 344.958 200.887 345.295 200.04C345.638 199.194 345.81 198.262 345.81 197.244C345.81 196.226 345.638 195.291 345.295 194.439C344.958 193.586 344.46 192.903 343.803 192.388C343.147 191.873 342.345 191.615 341.398 191.615C340.457 191.615 339.655 191.873 338.992 192.388C338.335 192.903 337.835 193.586 337.491 194.439C337.154 195.291 336.985 196.226 336.985 197.244C336.985 198.262 337.154 199.194 337.491 200.04C337.835 200.887 338.335 201.565 338.992 202.074C339.649 202.583 340.451 202.837 341.398 202.837ZM353.496 201.514L353.336 202.464C353.235 203.103 353.093 203.808 352.91 204.577C352.726 205.346 352.537 206.077 352.342 206.77C352.146 207.462 351.978 208.019 351.836 208.439H350.619C350.696 208.036 350.794 207.525 350.912 206.903C351.037 206.282 351.164 205.592 351.294 204.835C351.424 204.083 351.543 203.308 351.649 202.509L351.774 201.514H353.496ZM40.6263 234V220.364H42.2066V226.498H43.6892L48.7584 220.364H50.8003L45.3316 226.924L50.9246 234H48.8827L44.1775 227.99H42.2066V234H40.6263ZM58.2555 234.284C57.0777 234.284 56.036 233.985 55.1305 233.387C54.2309 232.79 53.5266 231.964 53.0176 230.911C52.5086 229.851 52.2541 228.629 52.2541 227.244C52.2541 225.847 52.5086 224.619 53.0176 223.56C53.5266 222.494 54.2309 221.666 55.1305 221.074C56.036 220.476 57.0777 220.177 58.2555 220.177C59.4333 220.177 60.472 220.476 61.3716 221.074C62.2712 221.672 62.9756 222.5 63.4846 223.56C63.9995 224.619 64.2569 225.847 64.2569 227.244C64.2569 228.629 64.0024 229.851 63.4934 230.911C62.9844 231.964 62.2772 232.79 61.3716 233.387C60.472 233.985 59.4333 234.284 58.2555 234.284ZM58.2555 232.837C59.2025 232.837 60.0044 232.583 60.6614 232.074C61.3184 231.565 61.8155 230.887 62.1529 230.04C62.4962 229.194 62.6678 228.262 62.6678 227.244C62.6678 226.226 62.4962 225.291 62.1529 224.439C61.8155 223.586 61.3184 222.903 60.6614 222.388C60.0044 221.873 59.2025 221.615 58.2555 221.615C57.3145 221.615 56.5125 221.873 55.8496 222.388C55.1926 222.903 54.6925 223.586 54.3493 224.439C54.0119 225.291 53.8432 226.226 53.8432 227.244C53.8432 228.262 54.0119 229.194 54.3493 230.04C54.6925 230.887 55.1926 231.565 55.8496 232.074C56.5066 232.583 57.3085 232.837 58.2555 232.837ZM65.8904 221.855V220.364H76.5439V221.855H72.0339V234H70.4537V221.855H65.8904ZM84.4762 234.284C83.2984 234.284 82.2567 233.985 81.3512 233.387C80.4516 232.79 79.7473 231.964 79.2383 230.911C78.7293 229.851 78.4748 228.629 78.4748 227.244C78.4748 225.847 78.7293 224.619 79.2383 223.56C79.7473 222.494 80.4516 221.666 81.3512 221.074C82.2567 220.476 83.2984 220.177 84.4762 220.177C85.654 220.177 86.6927 220.476 87.5923 221.074C88.492 221.672 89.1963 222.5 89.7053 223.56C90.2202 224.619 90.4776 225.847 90.4776 227.244C90.4776 228.629 90.2231 229.851 89.7141 230.911C89.2051 231.964 88.4979 232.79 87.5923 233.387C86.6927 233.985 85.654 234.284 84.4762 234.284ZM84.4762 232.837C85.4232 232.837 86.2251 232.583 86.8821 232.074C87.5391 231.565 88.0362 230.887 88.3736 230.04C88.7169 229.194 88.8885 228.262 88.8885 227.244C88.8885 226.226 88.7169 225.291 88.3736 224.439C88.0362 223.586 87.5391 222.903 86.8821 222.388C86.2251 221.873 85.4232 221.615 84.4762 221.615C83.5352 221.615 82.7332 221.873 82.0703 222.388C81.4134 222.903 80.9132 223.586 80.57 224.439C80.2326 225.291 80.0639 226.226 80.0639 227.244C80.0639 228.262 80.2326 229.194 80.57 230.04C80.9132 230.887 81.4134 231.565 82.0703 232.074C82.7273 232.583 83.5292 232.837 84.4762 232.837ZM93.9466 239.114V220.364H95.4825V222.965H95.6689C95.8583 222.556 96.1188 222.139 96.4502 221.713C96.7816 221.281 97.2196 220.917 97.7641 220.621C98.3145 220.325 99.007 220.177 99.8415 220.177C100.966 220.177 101.949 220.473 102.789 221.065C103.635 221.651 104.292 222.474 104.76 223.533C105.233 224.587 105.47 225.815 105.47 227.217C105.47 228.626 105.233 229.86 104.76 230.919C104.292 231.979 103.635 232.804 102.789 233.396C101.949 233.988 100.972 234.284 99.8593 234.284C99.0366 234.284 98.3471 234.136 97.7907 233.84C97.2403 233.544 96.7935 233.18 96.4502 232.748C96.1128 232.31 95.8524 231.884 95.6689 231.47H95.5269V239.114H93.9466ZM95.5091 227.191C95.5091 228.292 95.6719 229.268 95.9974 230.12C96.3289 230.967 96.8023 231.633 97.4179 232.118C98.0393 232.597 98.791 232.837 99.6729 232.837C100.578 232.837 101.342 232.588 101.963 232.091C102.591 231.588 103.067 230.911 103.393 230.058C103.724 229.206 103.89 228.25 103.89 227.191C103.89 226.143 103.727 225.199 103.402 224.359C103.082 223.518 102.608 222.852 101.981 222.361C101.354 221.864 100.584 221.615 99.6729 221.615C98.7851 221.615 98.0305 221.855 97.409 222.335C96.7876 222.808 96.3141 223.465 95.9885 224.305C95.6689 225.14 95.5091 226.102 95.5091 227.191ZM114.237 234.284C113.059 234.284 112.017 233.985 111.112 233.387C110.212 232.79 109.508 231.964 108.999 230.911C108.49 229.851 108.236 228.629 108.236 227.244C108.236 225.847 108.49 224.619 108.999 223.56C109.508 222.494 110.212 221.666 111.112 221.074C112.017 220.476 113.059 220.177 114.237 220.177C115.415 220.177 116.453 220.476 117.353 221.074C118.253 221.672 118.957 222.5 119.466 223.56C119.981 224.619 120.238 225.847 120.238 227.244C120.238 228.629 119.984 229.851 119.475 230.911C118.966 231.964 118.259 232.79 117.353 233.387C116.453 233.985 115.415 234.284 114.237 234.284ZM114.237 232.837C115.184 232.837 115.986 232.583 116.643 232.074C117.3 231.565 117.797 230.887 118.134 230.04C118.478 229.194 118.649 228.262 118.649 227.244C118.649 226.226 118.478 225.291 118.134 224.439C117.797 223.586 117.3 222.903 116.643 222.388C115.986 221.873 115.184 221.615 114.237 221.615C113.296 221.615 112.494 221.873 111.831 222.388C111.174 222.903 110.674 223.586 110.331 224.439C109.993 225.291 109.825 226.226 109.825 227.244C109.825 228.262 109.993 229.194 110.331 230.04C110.674 230.887 111.174 231.565 111.831 232.074C112.488 232.583 113.29 232.837 114.237 232.837ZM129.221 234.284C127.948 234.284 126.847 233.988 125.918 233.396C124.989 232.799 124.27 231.973 123.761 230.919C123.258 229.86 123.006 228.641 123.006 227.262C123.006 225.889 123.258 224.669 123.761 223.604C124.27 222.533 124.971 221.695 125.865 221.092C126.764 220.482 127.803 220.177 128.981 220.177C129.721 220.177 130.434 220.313 131.12 220.586C131.807 220.852 132.422 221.263 132.967 221.82C133.517 222.37 133.952 223.065 134.272 223.906C134.592 224.74 134.751 225.729 134.751 226.871V227.652H124.098V226.259H133.136C133.136 225.383 132.958 224.595 132.603 223.897C132.254 223.193 131.766 222.636 131.138 222.228C130.517 221.82 129.798 221.615 128.981 221.615C128.117 221.615 127.356 221.846 126.699 222.308C126.042 222.77 125.527 223.379 125.154 224.137C124.788 224.894 124.601 225.723 124.595 226.623V227.457C124.595 228.54 124.782 229.487 125.154 230.298C125.533 231.103 126.069 231.727 126.761 232.171C127.454 232.615 128.274 232.837 129.221 232.837C129.866 232.837 130.431 232.736 130.916 232.535C131.407 232.334 131.819 232.065 132.15 231.727C132.488 231.384 132.742 231.008 132.914 230.6L134.414 231.088C134.207 231.662 133.867 232.192 133.393 232.677C132.926 233.163 132.34 233.553 131.635 233.849C130.937 234.139 130.132 234.284 129.221 234.284ZM145.265 234L145.265 220.364H150.636C152.086 220.364 153.228 220.677 154.063 221.305C154.903 221.932 155.324 222.778 155.324 223.844C155.324 224.655 155.09 225.303 154.622 225.788C154.155 226.273 153.527 226.617 152.74 226.818C153.267 226.907 153.755 227.099 154.205 227.395C154.661 227.691 155.031 228.081 155.315 228.567C155.599 229.052 155.741 229.632 155.741 230.307C155.741 231.017 155.563 231.65 155.208 232.207C154.853 232.763 154.353 233.201 153.708 233.521C153.063 233.84 152.299 234 151.417 234H145.265ZM146.774 232.535H151.417C152.252 232.535 152.912 232.322 153.397 231.896C153.882 231.464 154.125 230.89 154.125 230.174C154.125 229.41 153.894 228.801 153.433 228.345C152.977 227.883 152.364 227.652 151.595 227.652H146.774V232.535ZM146.774 226.25H150.734C151.349 226.25 151.882 226.155 152.332 225.966C152.782 225.776 153.128 225.51 153.37 225.167C153.619 224.817 153.74 224.409 153.734 223.941C153.734 223.273 153.462 222.755 152.918 222.388C152.373 222.015 151.613 221.828 150.636 221.828H146.774V226.25ZM164.506 234.284C163.328 234.284 162.286 233.985 161.381 233.387C160.481 232.79 159.777 231.964 159.268 230.911C158.759 229.851 158.504 228.629 158.504 227.244C158.504 225.847 158.759 224.619 159.268 223.56C159.777 222.494 160.481 221.666 161.381 221.074C162.286 220.476 163.328 220.177 164.506 220.177C165.683 220.177 166.722 220.476 167.622 221.074C168.521 221.672 169.226 222.5 169.735 223.56C170.249 224.619 170.507 225.847 170.507 227.244C170.507 228.629 170.252 229.851 169.743 230.911C169.234 231.964 168.527 232.79 167.622 233.387C166.722 233.985 165.683 234.284 164.506 234.284ZM164.506 232.837C165.452 232.837 166.254 232.583 166.911 232.074C167.568 231.565 168.066 230.887 168.403 230.04C168.746 229.194 168.918 228.262 168.918 227.244C168.918 226.226 168.746 225.291 168.403 224.439C168.066 223.586 167.568 222.903 166.911 222.388C166.254 221.873 165.452 221.615 164.506 221.615C163.564 221.615 162.762 221.873 162.1 222.388C161.443 222.903 160.943 223.586 160.599 224.439C160.262 225.291 160.093 226.226 160.093 227.244C160.093 228.262 160.262 229.194 160.599 230.04C160.943 230.887 161.443 231.565 162.1 232.074C162.757 232.583 163.559 232.837 164.506 232.837ZM173.994 234L173.994 220.364H184.319L184.319 234H182.729V221.855H175.583V234H173.994ZM187.162 234V232.509H187.588C188.073 232.509 188.464 232.42 188.76 232.242C189.062 232.059 189.295 231.751 189.461 231.319C189.627 230.887 189.751 230.298 189.834 229.552C189.917 228.806 189.982 227.871 190.029 226.747L190.322 220.364L198.987 220.364L198.987 234H197.398V221.855L191.823 221.855L191.565 227.279C191.512 228.386 191.423 229.36 191.299 230.2C191.18 231.041 190.985 231.742 190.713 232.304C190.447 232.867 190.074 233.29 189.594 233.574C189.121 233.858 188.499 234 187.73 234H187.162ZM208.475 234.284C207.297 234.284 206.256 233.985 205.35 233.387C204.451 232.79 203.746 231.964 203.237 230.911C202.728 229.851 202.474 228.629 202.474 227.244C202.474 225.847 202.728 224.619 203.237 223.56C203.746 222.494 204.451 221.666 205.35 221.074C206.256 220.476 207.297 220.177 208.475 220.177C209.653 220.177 210.692 220.476 211.591 221.074C212.491 221.672 213.195 222.5 213.704 223.56C214.219 224.619 214.477 225.847 214.477 227.244C214.477 228.629 214.222 229.851 213.713 230.911C213.204 231.964 212.497 232.79 211.591 233.387C210.692 233.985 209.653 234.284 208.475 234.284ZM208.475 232.837C209.422 232.837 210.224 232.583 210.881 232.074C211.538 231.565 212.035 230.887 212.373 230.04C212.716 229.194 212.888 228.262 212.888 227.244C212.888 226.226 212.716 225.291 212.373 224.439C212.035 223.586 211.538 222.903 210.881 222.388C210.224 221.873 209.422 221.615 208.475 221.615C207.534 221.615 206.732 221.873 206.069 222.388C205.412 222.903 204.912 223.586 204.569 224.439C204.232 225.291 204.063 226.226 204.063 227.244C204.063 228.262 204.232 229.194 204.569 230.04C204.912 230.887 205.412 231.565 206.069 232.074C206.726 232.583 207.528 232.837 208.475 232.837ZM235.577 232.509L235.328 237.915H233.766V234H232.061V232.509H235.577ZM217.946 220.364H219.526L219.526 232.509H225.119L225.119 220.364H226.699L226.699 232.509H232.292L232.292 220.364H233.873L233.873 234H217.946L217.946 220.364ZM242.628 234.311C241.806 234.311 241.054 234.151 240.373 233.831C239.693 233.506 239.151 233.038 238.749 232.429C238.346 231.813 238.145 231.067 238.145 230.191C238.145 229.517 238.272 228.949 238.527 228.487C238.781 228.025 239.142 227.646 239.61 227.35C240.077 227.055 240.631 226.821 241.27 226.649C241.909 226.478 242.613 226.344 243.383 226.25C244.146 226.155 244.792 226.072 245.318 226.001C245.851 225.93 246.256 225.818 246.535 225.664C246.813 225.51 246.952 225.261 246.952 224.918V224.598C246.952 223.669 246.674 222.938 246.117 222.406C245.567 221.867 244.774 221.598 243.738 221.598C242.756 221.598 241.954 221.814 241.332 222.246C240.717 222.678 240.285 223.187 240.036 223.773L238.536 223.231C238.843 222.485 239.27 221.891 239.814 221.447C240.359 220.997 240.968 220.674 241.643 220.479C242.318 220.278 243.001 220.177 243.694 220.177C244.214 220.177 244.756 220.245 245.318 220.381C245.886 220.518 246.413 220.754 246.899 221.092C247.384 221.423 247.777 221.888 248.079 222.485C248.381 223.077 248.532 223.829 248.532 224.74V234H246.952V231.843H246.854C246.665 232.245 246.384 232.636 246.011 233.015C245.638 233.393 245.17 233.704 244.608 233.947C244.046 234.189 243.386 234.311 242.628 234.311ZM242.841 232.864C243.682 232.864 244.41 232.677 245.025 232.304C245.641 231.931 246.114 231.437 246.446 230.822C246.783 230.2 246.952 229.517 246.952 228.771V226.8C246.833 226.913 246.635 227.013 246.357 227.102C246.085 227.191 245.768 227.271 245.407 227.342C245.052 227.407 244.697 227.463 244.342 227.51C243.987 227.558 243.667 227.599 243.383 227.635C242.613 227.729 241.957 227.877 241.412 228.078C240.868 228.28 240.45 228.558 240.16 228.913C239.87 229.262 239.725 229.712 239.725 230.262C239.725 231.091 240.021 231.733 240.613 232.189C241.205 232.639 241.948 232.864 242.841 232.864ZM258.249 234.284C256.976 234.284 255.876 233.988 254.946 233.396C254.017 232.799 253.298 231.973 252.789 230.919C252.286 229.86 252.034 228.641 252.034 227.262C252.034 225.889 252.286 224.669 252.789 223.604C253.298 222.533 253.999 221.695 254.893 221.092C255.793 220.482 256.831 220.177 258.009 220.177C258.749 220.177 259.462 220.313 260.149 220.586C260.835 220.852 261.451 221.263 261.995 221.82C262.546 222.37 262.981 223.065 263.3 223.906C263.62 224.74 263.78 225.729 263.78 226.871V227.652H253.126V226.259H262.164C262.164 225.383 261.986 224.595 261.631 223.897C261.282 223.193 260.794 222.636 260.166 222.228C259.545 221.82 258.826 221.615 258.009 221.615C257.145 221.615 256.384 221.846 255.728 222.308C255.071 222.77 254.556 223.379 254.183 224.137C253.816 224.894 253.629 225.723 253.623 226.623V227.457C253.623 228.54 253.81 229.487 254.183 230.298C254.562 231.103 255.097 231.727 255.79 232.171C256.482 232.615 257.302 232.837 258.249 232.837C258.894 232.837 259.459 232.736 259.945 232.535C260.436 232.334 260.847 232.065 261.179 231.727C261.516 231.384 261.77 231.008 261.942 230.6L263.442 231.088C263.235 231.662 262.895 232.192 262.421 232.677C261.954 233.163 261.368 233.553 260.664 233.849C259.965 234.139 259.16 234.284 258.249 234.284ZM265.939 221.855V220.364H276.593V221.855H272.083V234H270.502V221.855H265.939ZM286.964 234V220.364H292.335C293.785 220.364 294.928 220.677 295.762 221.305C296.603 221.932 297.023 222.778 297.023 223.844C297.023 224.655 296.789 225.303 296.321 225.788C295.854 226.273 295.227 226.617 294.439 226.818C294.966 226.907 295.454 227.099 295.904 227.395C296.36 227.691 296.73 228.081 297.014 228.567C297.298 229.052 297.44 229.632 297.44 230.307C297.44 231.017 297.263 231.65 296.907 232.207C296.552 232.763 296.052 233.201 295.407 233.521C294.762 233.84 293.998 234 293.117 234H286.964ZM288.473 232.535H293.117C293.951 232.535 294.611 232.322 295.096 231.896C295.582 231.464 295.824 230.89 295.824 230.174C295.824 229.41 295.593 228.801 295.132 228.345C294.676 227.883 294.064 227.652 293.294 227.652H288.473V232.535ZM288.473 226.25H292.433C293.049 226.25 293.581 226.155 294.031 225.966C294.481 225.776 294.827 225.51 295.07 225.167C295.318 224.817 295.44 224.409 295.434 223.941C295.434 223.273 295.161 222.755 294.617 222.388C294.072 222.015 293.312 221.828 292.335 221.828H288.473V226.25ZM307.084 234L313.103 227.111L307.164 220.364H309.09L314.319 226.427H315.233V220.364H316.823V226.427H317.719L322.948 220.364H324.875L318.953 227.111L324.955 234H323.002L317.693 227.919H316.823V234H315.233V227.919H314.363L309.037 234H307.084ZM329.853 231.754L337.053 220.364H338.944V234H337.364V222.61L330.19 234H328.273V220.364H329.853V231.754ZM342.238 230.52H343.916C343.963 231.248 344.277 231.816 344.857 232.224C345.437 232.633 346.2 232.837 347.147 232.837C348.13 232.837 348.94 232.618 349.58 232.18C350.219 231.736 350.538 231.091 350.538 230.245C350.538 229.73 350.417 229.283 350.174 228.904C349.938 228.525 349.612 228.229 349.198 228.016C348.79 227.797 348.325 227.685 347.804 227.679H345.425V226.232H347.777C348.588 226.185 349.204 225.966 349.624 225.575C350.044 225.178 350.254 224.661 350.254 224.021C350.254 223.293 349.997 222.71 349.482 222.272C348.967 221.828 348.269 221.607 347.387 221.607C346.493 221.607 345.75 221.826 345.158 222.263C344.567 222.701 344.253 223.264 344.217 223.95H342.557C342.587 223.21 342.809 222.559 343.223 221.997C343.637 221.429 344.197 220.985 344.901 220.665C345.611 220.346 346.416 220.186 347.316 220.186C348.239 220.186 349.041 220.352 349.722 220.683C350.402 221.015 350.929 221.467 351.302 222.042C351.675 222.61 351.861 223.255 351.861 223.977C351.861 224.729 351.654 225.347 351.24 225.832C350.831 226.312 350.308 226.649 349.668 226.844V226.978C350.154 227.031 350.58 227.208 350.947 227.51C351.32 227.812 351.613 228.2 351.826 228.673C352.039 229.147 352.145 229.671 352.145 230.245C352.145 231.05 351.935 231.757 351.515 232.366C351.095 232.97 350.509 233.441 349.757 233.778C349.011 234.115 348.15 234.284 347.174 234.284C346.233 234.284 345.395 234.127 344.661 233.814C343.927 233.494 343.344 233.053 342.912 232.491C342.486 231.923 342.261 231.266 342.238 230.52ZM364.603 226.445V227.936H356.586V226.445H364.603ZM356.977 220.364V234H355.397V220.364H356.977ZM365.766 220.364V234H364.186V220.364H365.766ZM371.286 225.628H375.272C376.805 225.628 377.989 226.001 378.823 226.747C379.658 227.493 380.075 228.502 380.075 229.774C380.075 230.621 379.889 231.36 379.516 231.994C379.143 232.627 378.598 233.121 377.882 233.476C377.166 233.825 376.296 234 375.272 234H369.972V220.364H371.552V232.509H375.272C376.237 232.509 377.015 232.278 377.607 231.816C378.199 231.354 378.495 230.697 378.495 229.845C378.495 228.975 378.199 228.303 377.607 227.83C377.015 227.356 376.237 227.12 375.272 227.12H371.286V225.628ZM44.557 261.789L49.6795 250.364H51.2154L45.1873 264H43.9267L37.9696 250.364H39.4789L44.557 261.789ZM39.0083 250.364V264H37.4281V250.364H39.0083ZM50.1056 264V250.364H51.6859V264H50.1056ZM61.3983 264.284C60.1258 264.284 59.0249 263.988 58.0957 263.396C57.1665 262.799 56.4474 261.973 55.9384 260.919C55.4353 259.86 55.1838 258.641 55.1838 257.262C55.1838 255.889 55.4353 254.669 55.9384 253.604C56.4474 252.533 57.1487 251.695 58.0424 251.092C58.9421 250.482 59.9808 250.177 61.1586 250.177C61.8984 250.177 62.6116 250.313 63.2981 250.586C63.9847 250.852 64.6002 251.263 65.1447 251.82C65.6951 252.37 66.1301 253.065 66.4498 253.906C66.7694 254.74 66.9292 255.729 66.9292 256.871V257.652H56.2757V256.259H65.3134C65.3134 255.383 65.1358 254.595 64.7807 253.897C64.4315 253.193 63.9432 252.636 63.3159 252.228C62.6944 251.82 61.9753 251.615 61.1586 251.615C60.2944 251.615 59.5339 251.846 58.877 252.308C58.22 252.77 57.7051 253.379 57.3322 254.137C56.9653 254.894 56.7788 255.723 56.7729 256.623V257.457C56.7729 258.54 56.9593 259.487 57.3322 260.298C57.711 261.103 58.2466 261.727 58.9391 262.171C59.6316 262.615 60.4513 262.837 61.3983 262.837C62.0434 262.837 62.6086 262.736 63.0939 262.535C63.5852 262.334 63.9965 262.065 64.3279 261.727C64.6653 261.384 64.9198 261.008 65.0914 260.6L66.5918 261.088C66.3846 261.662 66.0443 262.192 65.5708 262.677C65.1033 263.163 64.5173 263.553 63.813 263.849C63.1146 264.139 62.3097 264.284 61.3983 264.284ZM80.4701 250.364L80.4701 264H78.8809L78.8809 250.364H80.4701ZM79.8841 257.102V258.611C79.3456 258.806 78.8336 258.972 78.3483 259.108C77.863 259.239 77.3747 259.339 76.8834 259.41C76.3981 259.481 75.8802 259.517 75.3298 259.517C73.7969 259.511 72.5925 259.117 71.7165 258.336C70.8465 257.555 70.4115 256.365 70.4115 254.767V250.319H71.9917V254.767C71.9917 255.525 72.1279 256.143 72.4001 256.623C72.6724 257.102 73.0571 257.457 73.5542 257.688C74.0514 257.913 74.6373 258.025 75.3121 258.025C76.1407 258.025 76.9219 257.942 77.6558 257.777C78.3897 257.611 79.1325 257.386 79.8841 257.102ZM82.7606 251.855V250.364H93.414V251.855H88.904L88.904 264H87.3238L87.3238 251.855H82.7606ZM98.0859 255.628H102.081C103.614 255.628 104.798 256.001 105.632 256.747C106.467 257.493 106.884 258.502 106.884 259.774C106.884 260.621 106.694 261.36 106.316 261.994C105.943 262.627 105.398 263.121 104.682 263.476C103.966 263.825 103.099 264 102.081 264H96.772L96.772 250.364H98.3612L98.3612 262.509H102.081C103.046 262.509 103.821 262.278 104.407 261.816C104.999 261.354 105.295 260.697 105.295 259.845C105.295 258.975 104.999 258.303 104.407 257.83C103.821 257.356 103.046 257.12 102.081 257.12H98.0859L98.0859 255.628ZM109.183 264L109.183 250.364H110.763L110.763 264H109.183ZM127.298 264.284C126.121 264.284 125.079 263.985 124.173 263.387C123.274 262.79 122.57 261.964 122.061 260.911C121.552 259.851 121.297 258.629 121.297 257.244C121.297 255.847 121.552 254.619 122.061 253.56C122.57 252.494 123.274 251.666 124.173 251.074C125.079 250.476 126.121 250.177 127.298 250.177C128.476 250.177 129.515 250.476 130.415 251.074C131.314 251.672 132.019 252.5 132.528 253.56C133.042 254.619 133.3 255.847 133.3 257.244C133.3 258.629 133.045 259.851 132.536 260.911C132.027 261.964 131.32 262.79 130.415 263.387C129.515 263.985 128.476 264.284 127.298 264.284ZM127.298 262.837C128.245 262.837 129.047 262.583 129.704 262.074C130.361 261.565 130.858 260.887 131.196 260.04C131.539 259.194 131.711 258.262 131.711 257.244C131.711 256.226 131.539 255.291 131.196 254.439C130.858 253.586 130.361 252.903 129.704 252.388C129.047 251.873 128.245 251.615 127.298 251.615C126.357 251.615 125.555 251.873 124.893 252.388C124.236 252.903 123.735 253.586 123.392 254.439C123.055 255.291 122.886 256.226 122.886 257.244C122.886 258.262 123.055 259.194 123.392 260.04C123.735 260.887 124.236 261.565 124.893 262.074C125.55 262.583 126.352 262.837 127.298 262.837ZM142.948 264L148.967 257.111L143.028 250.364H144.954L150.183 256.427H151.098V250.364H152.687V256.427H153.584L158.813 250.364H160.739L154.818 257.111L160.819 264H158.866L153.557 257.919H152.687V264H151.098V257.919H150.228L144.901 264H142.948ZM165.717 261.754L172.917 250.364H174.808V264H173.228V252.61L166.055 264H164.137V250.364H165.717V261.754ZM178.102 260.52H179.78C179.827 261.248 180.141 261.816 180.721 262.224C181.301 262.633 182.064 262.837 183.011 262.837C183.994 262.837 184.805 262.618 185.444 262.18C186.083 261.736 186.403 261.091 186.403 260.245C186.403 259.73 186.281 259.283 186.039 258.904C185.802 258.525 185.476 258.229 185.062 258.016C184.654 257.797 184.189 257.685 183.668 257.679H181.289V256.232H183.642C184.453 256.185 185.068 255.966 185.488 255.575C185.908 255.178 186.119 254.661 186.119 254.021C186.119 253.293 185.861 252.71 185.346 252.272C184.831 251.828 184.133 251.607 183.251 251.607C182.357 251.607 181.615 251.826 181.023 252.263C180.431 252.701 180.117 253.264 180.082 253.95H178.422C178.451 253.21 178.673 252.559 179.087 251.997C179.502 251.429 180.061 250.985 180.765 250.665C181.475 250.346 182.28 250.186 183.18 250.186C184.103 250.186 184.905 250.352 185.586 250.683C186.267 251.015 186.793 251.467 187.166 252.042C187.539 252.61 187.725 253.255 187.725 253.977C187.725 254.729 187.518 255.347 187.104 255.832C186.696 256.312 186.172 256.649 185.533 256.844V256.978C186.018 257.031 186.444 257.208 186.811 257.51C187.184 257.812 187.477 258.2 187.69 258.673C187.903 259.147 188.01 259.671 188.01 260.245C188.01 261.05 187.799 261.757 187.379 262.366C186.959 262.97 186.373 263.441 185.621 263.778C184.876 264.115 184.015 264.284 183.038 264.284C182.097 264.284 181.259 264.127 180.526 263.814C179.792 263.494 179.209 263.053 178.777 262.491C178.35 261.923 178.126 261.266 178.102 260.52ZM200.467 256.445V257.936H192.451V256.445H200.467ZM192.841 250.364V264L191.261 264V250.364L192.841 250.364ZM201.63 250.364V264H200.05V250.364H201.63ZM207.417 261.754L214.616 250.364H216.507V264H214.927V252.61L207.754 264H205.836V250.364H207.417V261.754ZM227.711 264V250.364H233.082C234.532 250.364 235.675 250.677 236.509 251.305C237.35 251.932 237.77 252.778 237.77 253.844C237.77 254.655 237.536 255.303 237.069 255.788C236.601 256.273 235.974 256.617 235.186 256.818C235.713 256.907 236.201 257.099 236.651 257.395C237.107 257.691 237.477 258.081 237.761 258.567C238.045 259.052 238.187 259.632 238.187 260.307C238.187 261.017 238.01 261.65 237.654 262.207C237.299 262.763 236.799 263.201 236.154 263.521C235.509 263.84 234.746 264 233.864 264H227.711ZM229.221 262.535H233.864C234.698 262.535 235.358 262.322 235.843 261.896C236.329 261.464 236.571 260.89 236.571 260.174C236.571 259.41 236.341 258.801 235.879 258.345C235.423 257.883 234.811 257.652 234.041 257.652H229.221V262.535ZM229.221 256.25H233.18C233.796 256.25 234.328 256.155 234.778 255.966C235.228 255.776 235.574 255.51 235.817 255.167C236.065 254.817 236.187 254.409 236.181 253.941C236.181 253.273 235.908 252.755 235.364 252.388C234.819 252.015 234.059 251.828 233.082 251.828H229.221V256.25ZM256.788 250.364V251.855H250.263V264H248.683V250.364H256.788ZM263.209 264.311C262.387 264.311 261.635 264.151 260.954 263.831C260.274 263.506 259.732 263.038 259.33 262.429C258.927 261.813 258.726 261.067 258.726 260.191C258.726 259.517 258.853 258.949 259.108 258.487C259.362 258.025 259.723 257.646 260.191 257.35C260.658 257.055 261.212 256.821 261.851 256.649C262.49 256.478 263.195 256.344 263.964 256.25C264.727 256.155 265.373 256.072 265.899 256.001C266.432 255.93 266.837 255.818 267.116 255.664C267.394 255.51 267.533 255.261 267.533 254.918V254.598C267.533 253.669 267.255 252.938 266.698 252.406C266.148 251.867 265.355 251.598 264.319 251.598C263.337 251.598 262.535 251.814 261.913 252.246C261.298 252.678 260.866 253.187 260.617 253.773L259.117 253.231C259.424 252.485 259.851 251.891 260.395 251.447C260.94 250.997 261.549 250.674 262.224 250.479C262.899 250.278 263.582 250.177 264.275 250.177C264.796 250.177 265.337 250.245 265.899 250.381C266.468 250.518 266.994 250.754 267.48 251.092C267.965 251.423 268.358 251.888 268.66 252.485C268.962 253.077 269.113 253.829 269.113 254.74V264H267.533V261.843H267.435C267.246 262.245 266.965 262.636 266.592 263.015C266.219 263.393 265.751 263.704 265.189 263.947C264.627 264.189 263.967 264.311 263.209 264.311ZM263.422 262.864C264.263 262.864 264.991 262.677 265.606 262.304C266.222 261.931 266.695 261.437 267.027 260.822C267.364 260.2 267.533 259.517 267.533 258.771V256.8C267.414 256.913 267.216 257.013 266.938 257.102C266.666 257.191 266.349 257.271 265.988 257.342C265.633 257.407 265.278 257.463 264.923 257.51C264.568 257.558 264.248 257.599 263.964 257.635C263.195 257.729 262.538 257.877 261.993 258.078C261.449 258.28 261.031 258.558 260.741 258.913C260.451 259.262 260.306 259.712 260.306 260.262C260.306 261.091 260.602 261.733 261.194 262.189C261.786 262.639 262.529 262.864 263.422 262.864ZM273.317 269.114V250.364H274.853V252.965H275.039C275.228 252.556 275.489 252.139 275.82 251.713C276.152 251.281 276.59 250.917 277.134 250.621C277.685 250.325 278.377 250.177 279.212 250.177C280.336 250.177 281.319 250.473 282.159 251.065C283.005 251.651 283.662 252.474 284.13 253.533C284.603 254.587 284.84 255.815 284.84 257.217C284.84 258.626 284.603 259.86 284.13 260.919C283.662 261.979 283.005 262.804 282.159 263.396C281.319 263.988 280.342 264.284 279.229 264.284C278.407 264.284 277.717 264.136 277.161 263.84C276.61 263.544 276.164 263.18 275.82 262.748C275.483 262.31 275.223 261.884 275.039 261.47H274.897V269.114H273.317ZM274.879 257.191C274.879 258.292 275.042 259.268 275.368 260.12C275.699 260.967 276.172 261.633 276.788 262.118C277.409 262.597 278.161 262.837 279.043 262.837C279.949 262.837 280.712 262.588 281.333 262.091C281.961 261.588 282.437 260.911 282.763 260.058C283.094 259.206 283.26 258.25 283.26 257.191C283.26 256.143 283.097 255.199 282.772 254.359C282.452 253.518 281.979 252.852 281.351 252.361C280.724 251.864 279.954 251.615 279.043 251.615C278.155 251.615 277.401 251.855 276.779 252.335C276.158 252.808 275.684 253.465 275.359 254.305C275.039 255.14 274.879 256.102 274.879 257.191ZM295.436 261.789L300.558 250.364H302.094L296.066 264H294.806L288.849 250.364H290.358L295.436 261.789ZM289.887 250.364V264H288.307V250.364H289.887ZM300.985 264V250.364H302.565V264H300.985ZM312.064 264.284C310.886 264.284 309.845 263.985 308.939 263.387C308.039 262.79 307.335 261.964 306.826 260.911C306.317 259.851 306.063 258.629 306.063 257.244C306.063 255.847 306.317 254.619 306.826 253.56C307.335 252.494 308.039 251.666 308.939 251.074C309.845 250.476 310.886 250.177 312.064 250.177C313.242 250.177 314.281 250.476 315.18 251.074C316.08 251.672 316.784 252.5 317.293 253.56C317.808 254.619 318.066 255.847 318.066 257.244C318.066 258.629 317.811 259.851 317.302 260.911C316.793 261.964 316.086 262.79 315.18 263.387C314.281 263.985 313.242 264.284 312.064 264.284ZM312.064 262.837C313.011 262.837 313.813 262.583 314.47 262.074C315.127 261.565 315.624 260.887 315.961 260.04C316.305 259.194 316.476 258.262 316.476 257.244C316.476 256.226 316.305 255.291 315.961 254.439C315.624 253.586 315.127 252.903 314.47 252.388C313.813 251.873 313.011 251.615 312.064 251.615C311.123 251.615 310.321 251.873 309.658 252.388C309.001 252.903 308.501 253.586 308.158 254.439C307.82 255.291 307.652 256.226 307.652 257.244C307.652 258.262 307.82 259.194 308.158 260.04C308.501 260.887 309.001 261.565 309.658 262.074C310.315 262.583 311.117 262.837 312.064 262.837ZM330.741 256.445V257.936H322.724V256.445H330.741ZM323.115 250.364V264H321.535V250.364H323.115ZM331.904 250.364V264H330.324V250.364H331.904ZM337.69 261.754L344.89 250.364H346.781V264H345.201V252.61L338.027 264H336.11V250.364H337.69V261.754ZM352.534 261.754L359.734 250.364H361.625V264H360.044V252.61L352.871 264H350.953V250.364H352.534V261.754ZM378.155 264.284C376.936 264.284 375.874 263.979 374.968 263.37C374.068 262.76 373.37 261.926 372.873 260.866C372.376 259.807 372.127 258.599 372.127 257.244C372.127 255.877 372.379 254.661 372.882 253.595C373.391 252.53 374.095 251.695 374.995 251.092C375.894 250.482 376.939 250.177 378.129 250.177C379.04 250.177 379.866 250.355 380.605 250.71C381.345 251.059 381.955 251.553 382.434 252.192C382.92 252.826 383.224 253.566 383.349 254.412H381.751C381.585 253.643 381.185 252.986 380.552 252.441C379.925 251.891 379.126 251.615 378.155 251.615C377.285 251.615 376.516 251.852 375.847 252.326C375.178 252.793 374.654 253.447 374.276 254.288C373.903 255.122 373.716 256.09 373.716 257.191C373.716 258.297 373.9 259.277 374.267 260.129C374.634 260.976 375.149 261.638 375.811 262.118C376.48 262.597 377.261 262.837 378.155 262.837C378.759 262.837 379.309 262.725 379.806 262.5C380.31 262.269 380.73 261.943 381.067 261.523C381.41 261.103 381.641 260.603 381.76 260.023H383.358C383.239 260.845 382.946 261.579 382.479 262.224C382.017 262.864 381.416 263.367 380.676 263.734C379.943 264.101 379.102 264.284 378.155 264.284ZM145.759 294V280.364H156.084V294H154.495V281.855H147.348V294H145.759ZM160.267 299.114V280.364H161.803V282.965H161.99C162.179 282.556 162.44 282.139 162.771 281.713C163.102 281.281 163.54 280.917 164.085 280.621C164.635 280.325 165.328 280.177 166.162 280.177C167.287 280.177 168.269 280.473 169.11 281.065C169.956 281.651 170.613 282.474 171.081 283.533C171.554 284.587 171.791 285.815 171.791 287.217C171.791 288.626 171.554 289.86 171.081 290.919C170.613 291.979 169.956 292.804 169.11 293.396C168.269 293.988 167.293 294.284 166.18 294.284C165.357 294.284 164.668 294.136 164.112 293.84C163.561 293.544 163.114 293.18 162.771 292.748C162.434 292.31 162.173 291.884 161.99 291.47H161.848V299.114H160.267ZM161.83 287.191C161.83 288.292 161.993 289.268 162.318 290.12C162.65 290.967 163.123 291.633 163.739 292.118C164.36 292.597 165.112 292.837 165.994 292.837C166.899 292.837 167.663 292.588 168.284 292.091C168.912 291.588 169.388 290.911 169.713 290.058C170.045 289.206 170.211 288.25 170.211 287.191C170.211 286.143 170.048 285.199 169.722 284.359C169.403 283.518 168.929 282.852 168.302 282.361C167.675 281.864 166.905 281.615 165.994 281.615C165.106 281.615 164.351 281.855 163.73 282.335C163.108 282.808 162.635 283.465 162.309 284.305C161.99 285.14 161.83 286.102 161.83 287.191ZM176.838 291.754L184.038 280.364H185.929V294H184.349V282.61L177.175 294H175.258V280.364H176.838V291.754ZM190.101 299.114V280.364H191.637V282.965H191.824C192.013 282.556 192.274 282.139 192.605 281.713C192.936 281.281 193.374 280.917 193.919 280.621C194.469 280.325 195.162 280.177 195.996 280.177C197.121 280.177 198.103 280.473 198.944 281.065C199.79 281.651 200.447 282.474 200.915 283.533C201.388 284.587 201.625 285.815 201.625 287.217C201.625 288.626 201.388 289.86 200.915 290.919C200.447 291.979 199.79 292.804 198.944 293.396C198.103 293.988 197.127 294.284 196.014 294.284C195.191 294.284 194.502 294.136 193.946 293.84C193.395 293.544 192.948 293.18 192.605 292.748C192.268 292.31 192.007 291.884 191.824 291.47H191.682V299.114H190.101ZM191.664 287.191C191.664 288.292 191.827 289.268 192.152 290.12C192.484 290.967 192.957 291.633 193.573 292.118C194.194 292.597 194.946 292.837 195.828 292.837C196.733 292.837 197.497 292.588 198.118 292.091C198.745 291.588 199.222 290.911 199.547 290.058C199.879 289.206 200.045 288.25 200.045 287.191C200.045 286.143 199.882 285.199 199.556 284.359C199.237 283.518 198.763 282.852 198.136 282.361C197.509 281.864 196.739 281.615 195.828 281.615C194.94 281.615 194.185 281.855 193.564 282.335C192.942 282.808 192.469 283.465 192.143 284.305C191.824 285.14 191.664 286.102 191.664 287.191ZM210.392 294.284C209.214 294.284 208.172 293.985 207.267 293.387C206.367 292.79 205.663 291.964 205.154 290.911C204.645 289.851 204.39 288.629 204.39 287.244C204.39 285.847 204.645 284.619 205.154 283.56C205.663 282.494 206.367 281.666 207.267 281.074C208.172 280.476 209.214 280.177 210.392 280.177C211.57 280.177 212.608 280.476 213.508 281.074C214.407 281.672 215.112 282.5 215.621 283.56C216.136 284.619 216.393 285.847 216.393 287.244C216.393 288.629 216.139 289.851 215.63 290.911C215.121 291.964 214.413 292.79 213.508 293.387C212.608 293.985 211.57 294.284 210.392 294.284ZM210.392 292.837C211.339 292.837 212.141 292.583 212.798 292.074C213.455 291.565 213.952 290.887 214.289 290.04C214.632 289.194 214.804 288.262 214.804 287.244C214.804 286.226 214.632 285.291 214.289 284.439C213.952 283.586 213.455 282.903 212.798 282.388C212.141 281.873 211.339 281.615 210.392 281.615C209.451 281.615 208.649 281.873 207.986 282.388C207.329 282.903 206.829 283.586 206.485 284.439C206.148 285.291 205.979 286.226 205.979 287.244C205.979 288.262 206.148 289.194 206.485 290.04C206.829 290.887 207.329 291.565 207.986 292.074C208.643 292.583 209.445 292.837 210.392 292.837ZM218.246 297.88V292.509H219.427C219.723 292.177 219.981 291.819 220.2 291.434C220.419 291.05 220.608 290.612 220.768 290.12C220.933 289.623 221.073 289.046 221.185 288.389C221.297 287.726 221.392 286.954 221.469 286.072L221.966 280.364L230.036 280.364V292.509H232.06V297.88H230.48V294L219.836 294V297.88H218.246ZM221.247 292.509L228.456 292.509V281.855L223.44 281.855L223.032 286.072C222.89 287.504 222.688 288.753 222.428 289.819C222.167 290.884 221.774 291.781 221.247 292.509ZM240.372 294.284C239.194 294.284 238.153 293.985 237.247 293.387C236.348 292.79 235.643 291.964 235.134 290.911C234.625 289.851 234.371 288.629 234.371 287.244C234.371 285.847 234.625 284.619 235.134 283.56C235.643 282.494 236.348 281.666 237.247 281.074C238.153 280.476 239.194 280.177 240.372 280.177C241.55 280.177 242.589 280.476 243.488 281.074C244.388 281.672 245.092 282.5 245.601 283.56C246.116 284.619 246.374 285.847 246.374 287.244C246.374 288.629 246.119 289.851 245.61 290.911C245.101 291.964 244.394 292.79 243.488 293.387C242.589 293.985 241.55 294.284 240.372 294.284ZM240.372 292.837C241.319 292.837 242.121 292.583 242.778 292.074C243.435 291.565 243.932 290.887 244.27 290.04C244.613 289.194 244.784 288.262 244.784 287.244C244.784 286.226 244.613 285.291 244.27 284.439C243.932 283.586 243.435 282.903 242.778 282.388C242.121 281.873 241.319 281.615 240.372 281.615C239.431 281.615 238.629 281.873 237.966 282.388C237.309 282.903 236.809 283.586 236.466 284.439C236.129 285.291 235.96 286.226 235.96 287.244C235.96 288.262 236.129 289.194 236.466 290.04C236.809 290.887 237.309 291.565 237.966 292.074C238.623 292.583 239.425 292.837 240.372 292.837ZM251.423 291.754L258.623 280.364H260.514V294H258.934V282.61L251.76 294H249.843V280.364H251.423V291.754ZM256.812 275.818H258.303C258.303 276.665 258.022 277.351 257.46 277.878C256.903 278.405 256.143 278.668 255.178 278.668C254.225 278.668 253.471 278.405 252.914 277.878C252.358 277.351 252.08 276.665 252.08 275.818H253.571C253.571 276.28 253.696 276.67 253.944 276.99C254.199 277.304 254.61 277.461 255.178 277.461C255.746 277.461 256.161 277.304 256.421 276.99C256.682 276.67 256.812 276.28 256.812 275.818ZM265.947 294.133C265.598 294.133 265.296 294.009 265.042 293.76C264.793 293.506 264.669 293.204 264.669 292.855C264.669 292.5 264.793 292.198 265.042 291.949C265.296 291.701 265.598 291.576 265.947 291.576C266.302 291.576 266.604 291.701 266.853 291.949C267.101 292.198 267.225 292.5 267.225 292.855C267.225 293.086 267.166 293.299 267.048 293.494C266.935 293.689 266.782 293.846 266.586 293.964C266.397 294.077 266.184 294.133 265.947 294.133Z" fill="white"/>
</svg>
