<svg width="433" height="433" viewBox="0 0 433 433" fill="none" xmlns="http://www.w3.org/2000/svg">
<rect width="433" height="433" fill="#B15C23"/>
<path d="M68.3596 177.818V204H65.9689V177.818H68.3596ZM51.5485 204L60.4973 190.423L52.5712 177.818H55.4604L62.6451 189.682H71.7218L78.9064 177.818H81.7956L73.8439 190.462L82.78 204H80.0314L72.1053 191.919H62.236L54.2715 204H51.5485ZM88.6958 200.766L99.0637 184.364H101.787V204H99.5112V187.598L89.1816 204H86.4203V184.364H88.6958V200.766ZM106.53 198.989H108.946C109.014 200.037 109.466 200.855 110.301 201.443C111.136 202.031 112.236 202.325 113.599 202.325C115.014 202.325 116.182 202.01 117.102 201.379C118.023 200.74 118.483 199.811 118.483 198.592C118.483 197.851 118.308 197.207 117.959 196.662C117.618 196.116 117.149 195.69 116.552 195.384C115.964 195.068 115.295 194.906 114.545 194.898H111.119V192.814H114.507C115.675 192.746 116.561 192.43 117.166 191.868C117.771 191.297 118.074 190.551 118.074 189.631C118.074 188.582 117.703 187.743 116.961 187.112C116.22 186.473 115.214 186.153 113.944 186.153C112.657 186.153 111.588 186.469 110.736 187.099C109.883 187.73 109.432 188.54 109.381 189.528H106.99C107.032 188.463 107.352 187.526 107.949 186.716C108.545 185.898 109.351 185.259 110.365 184.798C111.388 184.338 112.547 184.108 113.842 184.108C115.172 184.108 116.327 184.347 117.307 184.824C118.287 185.301 119.045 185.953 119.582 186.78C120.119 187.598 120.388 188.527 120.388 189.567C120.388 190.649 120.089 191.54 119.493 192.239C118.905 192.929 118.15 193.415 117.23 193.696V193.888C117.929 193.964 118.542 194.22 119.071 194.655C119.608 195.089 120.03 195.648 120.336 196.33C120.643 197.011 120.797 197.766 120.797 198.592C120.797 199.751 120.494 200.77 119.889 201.648C119.284 202.517 118.44 203.195 117.358 203.68C116.284 204.166 115.044 204.409 113.638 204.409C112.282 204.409 111.077 204.183 110.02 203.732C108.963 203.271 108.123 202.636 107.501 201.827C106.888 201.009 106.564 200.062 106.53 198.989ZM138.736 193.121V195.268L127.192 195.268V193.121L138.736 193.121ZM127.754 184.364V204H125.479V184.364H127.754ZM140.411 184.364V204H138.135V184.364H140.411ZM148.359 191.945H154.099C156.307 191.945 158.011 192.482 159.213 193.555C160.415 194.629 161.015 196.082 161.015 197.915C161.015 199.134 160.747 200.199 160.21 201.111C159.673 202.023 158.889 202.734 157.858 203.246C156.827 203.749 155.574 204 154.099 204H146.467V184.364H148.743V201.852H154.099C155.488 201.852 156.609 201.52 157.461 200.855C158.314 200.19 158.74 199.244 158.74 198.017C158.74 196.764 158.314 195.797 157.461 195.115C156.609 194.433 155.488 194.092 154.099 194.092H148.359V191.945ZM176.139 204V184.364H183.873C185.961 184.364 187.606 184.815 188.808 185.719C190.018 186.622 190.623 187.841 190.623 189.375C190.623 190.543 190.287 191.476 189.613 192.175C188.94 192.874 188.037 193.368 186.903 193.658C187.662 193.786 188.365 194.062 189.013 194.489C189.669 194.915 190.202 195.477 190.611 196.176C191.02 196.875 191.224 197.71 191.224 198.682C191.224 199.705 190.969 200.616 190.457 201.418C189.946 202.219 189.226 202.849 188.297 203.31C187.368 203.77 186.268 204 184.998 204H176.139ZM178.312 201.891H184.998C186.2 201.891 187.15 201.584 187.849 200.97C188.548 200.348 188.898 199.521 188.898 198.49C188.898 197.391 188.565 196.513 187.9 195.857C187.244 195.192 186.362 194.859 185.254 194.859H178.312V201.891ZM178.312 192.839H184.014C184.9 192.839 185.667 192.703 186.315 192.43C186.963 192.158 187.461 191.774 187.811 191.28C188.169 190.777 188.344 190.189 188.335 189.516C188.335 188.553 187.943 187.807 187.159 187.278C186.375 186.741 185.28 186.473 183.873 186.473H178.312V192.839ZM218.01 184.364V186.511H208.614V204H206.338V184.364H218.01ZM227.256 204.447C226.072 204.447 224.989 204.217 224.009 203.757C223.029 203.288 222.249 202.615 221.67 201.737C221.09 200.851 220.8 199.777 220.8 198.516C220.8 197.544 220.983 196.726 221.35 196.061C221.716 195.396 222.236 194.851 222.91 194.425C223.583 193.999 224.38 193.662 225.3 193.415C226.221 193.168 227.235 192.976 228.343 192.839C229.442 192.703 230.371 192.584 231.13 192.482C231.897 192.379 232.481 192.217 232.881 191.996C233.282 191.774 233.482 191.416 233.482 190.922V190.462C233.482 189.124 233.081 188.071 232.28 187.304C231.488 186.528 230.346 186.141 228.854 186.141C227.439 186.141 226.285 186.452 225.39 187.074C224.503 187.696 223.881 188.429 223.523 189.273L221.363 188.493C221.806 187.419 222.42 186.562 223.204 185.923C223.988 185.276 224.866 184.811 225.837 184.53C226.809 184.24 227.793 184.095 228.79 184.095C229.54 184.095 230.32 184.193 231.13 184.389C231.948 184.585 232.706 184.926 233.405 185.412C234.104 185.889 234.671 186.558 235.106 187.419C235.54 188.271 235.758 189.354 235.758 190.666V204H233.482V200.893H233.341C233.069 201.473 232.664 202.036 232.127 202.581C231.59 203.126 230.917 203.574 230.107 203.923C229.297 204.273 228.347 204.447 227.256 204.447ZM227.563 202.364C228.773 202.364 229.822 202.095 230.708 201.558C231.594 201.021 232.276 200.31 232.753 199.423C233.239 198.528 233.482 197.544 233.482 196.47V193.632C233.312 193.794 233.026 193.939 232.626 194.067C232.233 194.195 231.778 194.31 231.258 194.412C230.746 194.506 230.235 194.587 229.724 194.655C229.212 194.723 228.752 194.783 228.343 194.834C227.235 194.97 226.289 195.183 225.505 195.473C224.721 195.763 224.12 196.163 223.702 196.675C223.285 197.178 223.076 197.825 223.076 198.618C223.076 199.811 223.502 200.736 224.354 201.392C225.206 202.04 226.276 202.364 227.563 202.364ZM241.811 211.364V184.364H244.023V188.109H244.291C244.564 187.521 244.939 186.92 245.416 186.307C245.893 185.685 246.524 185.161 247.308 184.734C248.101 184.308 249.098 184.095 250.3 184.095C251.919 184.095 253.334 184.521 254.544 185.374C255.763 186.217 256.709 187.402 257.382 188.928C258.064 190.445 258.405 192.213 258.405 194.233C258.405 196.261 258.064 198.038 257.382 199.564C256.709 201.089 255.763 202.278 254.544 203.131C253.334 203.983 251.927 204.409 250.325 204.409C249.14 204.409 248.148 204.196 247.346 203.77C246.554 203.344 245.91 202.82 245.416 202.197C244.93 201.567 244.555 200.953 244.291 200.357H244.086V211.364H241.811ZM244.061 194.195C244.061 195.78 244.295 197.186 244.764 198.413C245.241 199.632 245.923 200.591 246.809 201.29C247.704 201.98 248.787 202.325 250.057 202.325C251.361 202.325 252.46 201.967 253.355 201.251C254.258 200.527 254.944 199.551 255.413 198.324C255.89 197.097 256.129 195.72 256.129 194.195C256.129 192.686 255.895 191.327 255.426 190.116C254.966 188.906 254.284 187.947 253.381 187.24C252.477 186.524 251.369 186.166 250.057 186.166C248.778 186.166 247.692 186.511 246.797 187.202C245.902 187.884 245.22 188.83 244.751 190.04C244.291 191.241 244.061 192.626 244.061 194.195ZM273.662 200.817L281.039 184.364H283.251L274.57 204H272.755L264.177 184.364H266.35L273.662 200.817ZM265.672 184.364V204H263.397V184.364H265.672ZM281.653 204V184.364H283.928V204H281.653ZM297.607 204.409C295.911 204.409 294.411 203.979 293.107 203.118C291.812 202.257 290.797 201.068 290.064 199.551C289.331 198.026 288.965 196.266 288.965 194.271C288.965 192.26 289.331 190.491 290.064 188.966C290.797 187.432 291.812 186.239 293.107 185.386C294.411 184.526 295.911 184.095 297.607 184.095C299.303 184.095 300.799 184.526 302.094 185.386C303.39 186.247 304.404 187.44 305.137 188.966C305.878 190.491 306.249 192.26 306.249 194.271C306.249 196.266 305.883 198.026 305.15 199.551C304.417 201.068 303.398 202.257 302.094 203.118C300.799 203.979 299.303 204.409 297.607 204.409ZM297.607 202.325C298.971 202.325 300.126 201.959 301.072 201.226C302.018 200.493 302.733 199.517 303.219 198.298C303.714 197.08 303.961 195.737 303.961 194.271C303.961 192.805 303.714 191.459 303.219 190.232C302.733 189.004 302.018 188.02 301.072 187.278C300.126 186.537 298.971 186.166 297.607 186.166C296.252 186.166 295.097 186.537 294.143 187.278C293.197 188.02 292.476 189.004 291.982 190.232C291.496 191.459 291.253 192.805 291.253 194.271C291.253 195.737 291.496 197.08 291.982 198.298C292.476 199.517 293.197 200.493 294.143 201.226C295.089 201.959 296.243 202.325 297.607 202.325ZM324.502 193.121V195.268H312.958V193.121H324.502ZM313.52 184.364V204H311.244V184.364H313.52ZM326.176 184.364V204H323.901V184.364H326.176ZM334.508 200.766L344.876 184.364H347.599V204H345.324V187.598L334.994 204H332.233V184.364H334.508V200.766ZM355.883 200.766L366.251 184.364H368.974V204H366.699V187.598L356.369 204H353.608V184.364H355.883V200.766ZM126.452 248.409C124.696 248.409 123.167 247.97 121.863 247.092C120.567 246.214 119.561 245.013 118.846 243.487C118.13 241.962 117.772 240.223 117.772 238.271C117.772 236.303 118.134 234.551 118.858 233.017C119.591 231.483 120.605 230.281 121.901 229.412C123.196 228.534 124.701 228.095 126.414 228.095C127.726 228.095 128.915 228.351 129.98 228.862C131.046 229.365 131.924 230.077 132.614 230.997C133.313 231.909 133.752 232.974 133.931 234.193H131.63C131.391 233.085 130.816 232.139 129.904 231.355C129 230.562 127.85 230.166 126.452 230.166C125.199 230.166 124.091 230.507 123.128 231.189C122.165 231.862 121.411 232.804 120.865 234.014C120.328 235.216 120.06 236.609 120.06 238.195C120.06 239.788 120.324 241.199 120.853 242.426C121.381 243.645 122.123 244.599 123.077 245.29C124.04 245.98 125.165 246.325 126.452 246.325C127.321 246.325 128.114 246.163 128.83 245.839C129.554 245.507 130.159 245.038 130.645 244.433C131.14 243.828 131.472 243.108 131.642 242.273H133.944C133.773 243.457 133.351 244.514 132.678 245.443C132.013 246.364 131.148 247.088 130.083 247.616C129.026 248.145 127.816 248.409 126.452 248.409ZM148.971 248V228.364H163.839V248H161.551V230.511H151.26V248H148.971ZM169.864 255.364V228.364H172.075V232.109H172.344C172.616 231.521 172.991 230.92 173.469 230.307C173.946 229.685 174.577 229.161 175.361 228.734C176.153 228.308 177.151 228.095 178.352 228.095C179.972 228.095 181.386 228.521 182.597 229.374C183.815 230.217 184.761 231.402 185.435 232.928C186.116 234.445 186.457 236.213 186.457 238.233C186.457 240.261 186.116 242.038 185.435 243.564C184.761 245.089 183.815 246.278 182.597 247.131C181.386 247.983 179.98 248.409 178.378 248.409C177.193 248.409 176.2 248.196 175.399 247.77C174.607 247.344 173.963 246.82 173.469 246.197C172.983 245.567 172.608 244.953 172.344 244.357H172.139V255.364H169.864ZM172.114 238.195C172.114 239.78 172.348 241.186 172.817 242.413C173.294 243.632 173.976 244.591 174.862 245.29C175.757 245.98 176.839 246.325 178.109 246.325C179.413 246.325 180.513 245.967 181.408 245.251C182.311 244.527 182.997 243.551 183.466 242.324C183.943 241.097 184.182 239.72 184.182 238.195C184.182 236.686 183.947 235.327 183.479 234.116C183.018 232.906 182.337 231.947 181.433 231.24C180.53 230.524 179.422 230.166 178.109 230.166C176.831 230.166 175.744 230.511 174.849 231.202C173.955 231.884 173.273 232.83 172.804 234.04C172.344 235.241 172.114 236.626 172.114 238.195ZM193.725 244.766L204.093 228.364H206.816L206.816 248H204.54L204.54 231.598L194.211 248H191.45L191.45 228.364H193.725L193.725 244.766ZM212.825 255.364L212.825 228.364H215.036V232.109H215.305C215.577 231.521 215.952 230.92 216.43 230.307C216.907 229.685 217.538 229.161 218.322 228.734C219.114 228.308 220.112 228.095 221.313 228.095C222.933 228.095 224.347 228.521 225.558 229.374C226.776 230.217 227.722 231.402 228.396 232.928C229.077 234.445 229.418 236.213 229.418 238.233C229.418 240.261 229.077 242.038 228.396 243.564C227.722 245.089 226.776 246.278 225.558 247.131C224.347 247.983 222.941 248.409 221.339 248.409C220.154 248.409 219.161 248.196 218.36 247.77C217.567 247.344 216.924 246.82 216.43 246.197C215.944 245.567 215.569 244.953 215.305 244.357H215.1V255.364H212.825ZM215.075 238.195C215.075 239.78 215.309 241.186 215.778 242.413C216.255 243.632 216.937 244.591 217.823 245.29C218.718 245.98 219.8 246.325 221.07 246.325C222.374 246.325 223.474 245.967 224.369 245.251C225.272 244.527 225.958 243.551 226.427 242.324C226.904 241.097 227.143 239.72 227.143 238.195C227.143 236.686 226.908 235.327 226.44 234.116C225.979 232.906 225.298 231.947 224.394 231.24C223.491 230.524 222.383 230.166 221.07 230.166C219.792 230.166 218.705 230.511 217.81 231.202C216.915 231.884 216.234 232.83 215.765 234.04C215.305 235.241 215.075 236.626 215.075 238.195ZM242.043 248.409C240.347 248.409 238.847 247.979 237.543 247.118C236.247 246.257 235.233 245.068 234.5 243.551C233.767 242.026 233.401 240.266 233.401 238.271C233.401 236.26 233.767 234.491 234.5 232.966C235.233 231.432 236.247 230.239 237.543 229.386C238.847 228.526 240.347 228.095 242.043 228.095C243.739 228.095 245.234 228.526 246.53 229.386C247.825 230.247 248.839 231.44 249.572 232.966C250.314 234.491 250.685 236.26 250.685 238.271C250.685 240.266 250.318 242.026 249.585 243.551C248.852 245.068 247.834 246.257 246.53 247.118C245.234 247.979 243.739 248.409 242.043 248.409ZM242.043 246.325C243.406 246.325 244.561 245.959 245.507 245.226C246.453 244.493 247.169 243.517 247.655 242.298C248.149 241.08 248.396 239.737 248.396 238.271C248.396 236.805 248.149 235.459 247.655 234.232C247.169 233.004 246.453 232.02 245.507 231.278C244.561 230.537 243.406 230.166 242.043 230.166C240.688 230.166 239.533 230.537 238.578 231.278C237.632 232.02 236.912 233.004 236.418 234.232C235.932 235.459 235.689 236.805 235.689 238.271C235.689 239.737 235.932 241.08 236.418 242.298C236.912 243.517 237.632 244.493 238.578 245.226C239.524 245.959 240.679 246.325 242.043 246.325ZM253.353 253.587V245.852H255.054C255.48 245.375 255.85 244.859 256.166 244.305C256.481 243.751 256.754 243.121 256.984 242.413C257.223 241.697 257.423 240.866 257.585 239.92C257.747 238.966 257.883 237.854 257.994 236.584L258.71 228.364H270.331V245.852H273.245V253.587H270.97V248H255.642V253.587H253.353ZM257.674 245.852H268.055V230.511H260.832L260.244 236.584C260.039 238.646 259.75 240.445 259.375 241.979C259 243.513 258.433 244.804 257.674 245.852ZM285.214 248.409C283.518 248.409 282.018 247.979 280.714 247.118C279.419 246.257 278.405 245.068 277.672 243.551C276.939 242.026 276.572 240.266 276.572 238.271C276.572 236.26 276.939 234.491 277.672 232.966C278.405 231.432 279.419 230.239 280.714 229.386C282.018 228.526 283.518 228.095 285.214 228.095C286.911 228.095 288.406 228.526 289.702 229.386C290.997 230.247 292.011 231.44 292.744 232.966C293.486 234.491 293.857 236.26 293.857 238.271C293.857 240.266 293.49 242.026 292.757 243.551C292.024 245.068 291.006 246.257 289.702 247.118C288.406 247.979 286.911 248.409 285.214 248.409ZM285.214 246.325C286.578 246.325 287.733 245.959 288.679 245.226C289.625 244.493 290.341 243.517 290.827 242.298C291.321 241.08 291.568 239.737 291.568 238.271C291.568 236.805 291.321 235.459 290.827 234.232C290.341 233.004 289.625 232.02 288.679 231.278C287.733 230.537 286.578 230.166 285.214 230.166C283.859 230.166 282.705 230.537 281.75 231.278C280.804 232.02 280.084 233.004 279.589 234.232C279.104 235.459 278.861 236.805 278.861 238.271C278.861 239.737 279.104 241.08 279.589 242.298C280.084 243.517 280.804 244.493 281.75 245.226C282.696 245.959 283.851 246.325 285.214 246.325ZM301.127 244.766L311.495 228.364H314.218V248H311.943V231.598L301.613 248H298.852V228.364H301.127V244.766ZM308.887 221.818H311.035C311.035 223.037 310.63 224.026 309.821 224.784C309.02 225.543 307.924 225.922 306.535 225.922C305.163 225.922 304.076 225.543 303.275 224.784C302.474 224.026 302.074 223.037 302.074 221.818H304.221C304.221 222.483 304.4 223.045 304.758 223.506C305.125 223.957 305.717 224.183 306.535 224.183C307.353 224.183 307.95 223.957 308.325 223.506C308.7 223.045 308.887 222.483 308.887 221.818Z" fill="white"/>
</svg>
