<svg width="594.549561" height="814.500000" viewBox="0 0 594.55 814.5" fill="none" xmlns="http://www.w3.org/2000/svg" xmlns:xlink="http://www.w3.org/1999/xlink">
	<desc>
			Created with Pixso.
	</desc>
	<defs/>
	<rect id="Rectangle 10" x="448.105713" y="8.000000" width="32.000000" height="770.000000" stroke="#FFFFFF" stroke-opacity="1.000000" stroke-width="16.000000"/>
	<path id="Polygon 2" d="M590.26 106.32Q588.13 103.74 585.03 101.94L472.33 36.72Q468.56 34.54 464.52 33.76Q460.49 32.99 456.18 33.62L14.54 98.3Q10.92 98.83 8.05 100.59Q5.3 102.28 3.24 105.11Q1.46 107.56 0.66 110.3Q-0.17 113.14 0.04 116.27Q0.25 119.41 1.46 122.1Q2.63 124.71 4.73 126.9Q7.15 129.42 10.11 130.73Q13.18 132.08 16.84 132.12L575.34 137.39Q578.92 137.42 582.06 136.27Q584.95 135.22 587.48 133.17Q589.78 131.31 591.34 128.96Q593.01 126.45 593.84 123.4Q594.68 120.35 594.52 117.35Q594.37 114.53 593.34 111.76Q592.21 108.7 590.26 106.32ZM458.5 49.45C460.51 49.16 462.56 49.55 464.31 50.56L558.77 105.23L566.08 109.46L577.02 115.79C579.69 117.34 578.57 121.42 575.49 121.39L562.85 121.27L554.4 121.19L107.84 116.97L31.97 116.26L16.99 116.12C15.76 116.11 15.63 114.31 16.85 114.13L31.67 111.96L106.75 100.96L458.5 49.45Z" fill="#FFFFFF" fill-opacity="1.000000" fill-rule="evenodd"/>
	<path id="Polygon 4" d="M341.78 802.54C337.37 806.95 340.49 814.5 346.73 814.5L580.48 814.5C586.71 814.5 589.84 806.95 585.42 802.54L468.55 685.93C465.81 683.2 461.39 683.2 458.66 685.93L341.78 802.54ZM368.49 798.5L558.71 798.5L463.6 703.6L368.49 798.5Z" fill="#FFFFFF" fill-opacity="1.000000" fill-rule="evenodd"/>
	<path id="Line 5" d="M154.1 125.2L191.6 80L280.6 125.2L326.1 64.5L377.94 125.2L425.1 56L524.6 125.2" stroke="#FFFFFF" stroke-opacity="1.000000" stroke-width="10.000000"/>
</svg>
