<svg width="1308.931396" height="406.277832" viewBox="0 0 1308.93 406.278" fill="none" xmlns="http://www.w3.org/2000/svg" xmlns:xlink="http://www.w3.org/1999/xlink">
	<desc>
			Created with Pixso.
	</desc>
	<defs/>
	<path id="Line 1" d="M9.41 402.71L103.54 354.88C183.01 314.5 271.83 296.1 360.8 301.58L686.61 321.67C783.26 327.63 872.41 269.55 906.01 178.72C944.06 75.85 1052.21 16.85 1159.31 40.54L1308.06 73.44" stroke="#FFFFFF" stroke-opacity="1.000000" stroke-width="8.000000"/>
	<path id="Line 2" d="M0.9 383.89L95.02 336.07C174.5 295.69 263.32 277.29 352.29 282.77L678.09 302.86C774.75 308.82 863.9 250.74 897.49 159.91C935.55 57.04 1043.69 -1.96 1150.8 21.73L1299.56 54.63" stroke="#FFFFFF" stroke-opacity="1.000000" stroke-width="4.000000"/>
	<path id="Line 3" d="M0.9 367.89L95.02 320.07C174.5 279.69 263.32 261.29 352.29 266.77L678.09 286.86C774.75 292.82 863.9 234.74 897.49 143.91C935.55 41.04 1043.69 -17.96 1150.8 5.73L1299.56 38.63" stroke="#FFFFFF" stroke-opacity="1.000000" stroke-width="1.000000"/>
</svg>
