<svg width="433" height="433" viewBox="0 0 433 433" fill="none" xmlns="http://www.w3.org/2000/svg">
<rect width="433" height="433" fill="white"/>
<path d="M88.3498 217.354V208.852H90.0117C90.6168 208.222 91.1751 207.391 91.6864 206.359C92.1978 205.32 92.6239 203.982 92.9648 202.345C93.3143 200.7 93.5401 198.646 93.6424 196.183L94.1665 184.818H109.137V208.852H112.205L112.205 217.29H109.929L109.929 211H90.6254V217.354H88.3498ZM92.8754 208.852H106.861V186.966H96.3398L95.9308 196.183C95.837 198.186 95.6623 199.972 95.4066 201.54C95.1509 203.099 94.81 204.484 94.3839 205.695C93.9663 206.896 93.4634 207.949 92.8754 208.852ZM124.519 211.409C122.823 211.409 121.323 210.979 120.019 210.118C118.724 209.257 117.71 208.068 116.977 206.551C116.244 205.026 115.877 203.266 115.877 201.271C115.877 199.26 116.244 197.491 116.977 195.966C117.71 194.432 118.724 193.239 120.019 192.386C121.323 191.526 122.823 191.095 124.519 191.095C126.215 191.095 127.711 191.526 129.006 192.386C130.302 193.247 131.316 194.44 132.049 195.966C132.79 197.491 133.161 199.26 133.161 201.271C133.161 203.266 132.795 205.026 132.062 206.551C131.329 208.068 130.31 209.257 129.006 210.118C127.711 210.979 126.215 211.409 124.519 211.409ZM124.519 209.325C125.883 209.325 127.038 208.959 127.984 208.226C128.93 207.493 129.646 206.517 130.131 205.298C130.626 204.08 130.873 202.737 130.873 201.271C130.873 199.805 130.626 198.459 130.131 197.232C129.646 196.004 128.93 195.02 127.984 194.278C127.038 193.537 125.883 193.166 124.519 193.166C123.164 193.166 122.009 193.537 121.055 194.278C120.109 195.02 119.388 196.004 118.894 197.232C118.408 198.459 118.165 199.805 118.165 201.271C118.165 202.737 118.408 204.08 118.894 205.298C119.388 206.517 120.109 207.493 121.055 208.226C122.001 208.959 123.156 209.325 124.519 209.325ZM148.422 207.817L155.799 191.364H158.01L149.33 211H147.515L138.936 191.364H141.11L148.422 207.817ZM140.432 191.364V211H138.157V191.364H140.432ZM156.412 211V191.364H158.688V211H156.412ZM170.219 211.447C169.034 211.447 167.952 211.217 166.972 210.757C165.992 210.288 165.212 209.615 164.632 208.737C164.053 207.851 163.763 206.777 163.763 205.516C163.763 204.544 163.946 203.726 164.313 203.061C164.679 202.396 165.199 201.851 165.873 201.425C166.546 200.999 167.343 200.662 168.263 200.415C169.184 200.168 170.198 199.976 171.306 199.839C172.405 199.703 173.334 199.584 174.093 199.482C174.86 199.379 175.444 199.217 175.844 198.996C176.245 198.774 176.445 198.416 176.445 197.922V197.462C176.445 196.124 176.044 195.071 175.243 194.304C174.451 193.528 173.309 193.141 171.817 193.141C170.402 193.141 169.248 193.452 168.353 194.074C167.466 194.696 166.844 195.429 166.486 196.273L164.326 195.493C164.769 194.419 165.382 193.562 166.167 192.923C166.951 192.276 167.828 191.811 168.8 191.53C169.772 191.24 170.756 191.095 171.753 191.095C172.503 191.095 173.283 191.193 174.093 191.389C174.911 191.585 175.669 191.926 176.368 192.412C177.067 192.889 177.634 193.558 178.069 194.419C178.503 195.271 178.721 196.354 178.721 197.666V211H176.445V207.893H176.304C176.032 208.473 175.627 209.036 175.09 209.581C174.553 210.126 173.88 210.574 173.07 210.923C172.26 211.273 171.31 211.447 170.219 211.447ZM170.526 209.364C171.736 209.364 172.784 209.095 173.671 208.558C174.557 208.021 175.239 207.31 175.716 206.423C176.202 205.528 176.445 204.544 176.445 203.47V200.632C176.275 200.794 175.989 200.939 175.588 201.067C175.196 201.195 174.74 201.31 174.221 201.412C173.709 201.506 173.198 201.587 172.686 201.655C172.175 201.723 171.715 201.783 171.306 201.834C170.198 201.97 169.252 202.183 168.468 202.473C167.684 202.763 167.083 203.163 166.665 203.675C166.248 204.178 166.039 204.825 166.039 205.618C166.039 206.811 166.465 207.736 167.317 208.392C168.169 209.04 169.239 209.364 170.526 209.364ZM194.899 211V191.364H202.633C204.721 191.364 206.366 191.815 207.568 192.719C208.778 193.622 209.383 194.841 209.383 196.375C209.383 197.543 209.047 198.476 208.373 199.175C207.7 199.874 206.797 200.368 205.663 200.658C206.422 200.786 207.125 201.062 207.772 201.489C208.429 201.915 208.961 202.477 209.37 203.176C209.779 203.875 209.984 204.71 209.984 205.682C209.984 206.705 209.728 207.616 209.217 208.418C208.706 209.219 207.985 209.849 207.056 210.31C206.127 210.77 205.028 211 203.758 211H194.899ZM197.072 208.891H203.758C204.96 208.891 205.91 208.584 206.609 207.97C207.308 207.348 207.657 206.521 207.657 205.49C207.657 204.391 207.325 203.513 206.66 202.857C206.004 202.192 205.122 201.859 204.014 201.859H197.072V208.891ZM197.072 199.839H202.774C203.66 199.839 204.427 199.703 205.075 199.43C205.723 199.158 206.221 198.774 206.571 198.28C206.929 197.777 207.103 197.189 207.095 196.516C207.095 195.553 206.703 194.807 205.919 194.278C205.135 193.741 204.039 193.473 202.633 193.473H197.072V199.839ZM232.768 211.409C231.013 211.409 229.483 210.97 228.179 210.092C226.884 209.214 225.878 208.013 225.162 206.487C224.446 204.962 224.088 203.223 224.088 201.271C224.088 199.303 224.45 197.551 225.175 196.017C225.908 194.483 226.922 193.281 228.217 192.412C229.513 191.534 231.017 191.095 232.73 191.095C234.043 191.095 235.232 191.351 236.297 191.862C237.362 192.365 238.24 193.077 238.93 193.997C239.629 194.909 240.068 195.974 240.247 197.193H237.946C237.707 196.085 237.132 195.139 236.22 194.355C235.317 193.562 234.166 193.166 232.768 193.166C231.516 193.166 230.408 193.507 229.445 194.189C228.482 194.862 227.727 195.804 227.182 197.014C226.645 198.216 226.376 199.609 226.376 201.195C226.376 202.788 226.641 204.199 227.169 205.426C227.697 206.645 228.439 207.599 229.393 208.29C230.357 208.98 231.482 209.325 232.768 209.325C233.638 209.325 234.43 209.163 235.146 208.839C235.871 208.507 236.476 208.038 236.962 207.433C237.456 206.828 237.788 206.108 237.959 205.273H240.26C240.089 206.457 239.668 207.514 238.994 208.443C238.33 209.364 237.464 210.088 236.399 210.616C235.342 211.145 234.132 211.409 232.768 211.409ZM245.137 211V191.364H247.413V200.197H249.548L256.847 191.364H259.788L251.913 200.811L259.967 211H257.026L250.251 202.345H247.413V211H245.137ZM269.184 211.447C267.999 211.447 266.917 211.217 265.937 210.757C264.957 210.288 264.177 209.615 263.597 208.737C263.018 207.851 262.728 206.777 262.728 205.516C262.728 204.544 262.911 203.726 263.278 203.061C263.644 202.396 264.164 201.851 264.837 201.425C265.511 200.999 266.308 200.662 267.228 200.415C268.148 200.168 269.163 199.976 270.271 199.839C271.37 199.703 272.299 199.584 273.058 199.482C273.825 199.379 274.408 199.217 274.809 198.996C275.21 198.774 275.41 198.416 275.41 197.922V197.462C275.41 196.124 275.009 195.071 274.208 194.304C273.415 193.528 272.273 193.141 270.782 193.141C269.367 193.141 268.212 193.452 267.317 194.074C266.431 194.696 265.809 195.429 265.451 196.273L263.29 195.493C263.734 194.419 264.347 193.562 265.131 192.923C265.915 192.276 266.793 191.811 267.765 191.53C268.737 191.24 269.721 191.095 270.718 191.095C271.468 191.095 272.248 191.193 273.058 191.389C273.876 191.585 274.634 191.926 275.333 192.412C276.032 192.889 276.599 193.558 277.033 194.419C277.468 195.271 277.685 196.354 277.685 197.666V211H275.41V207.893H275.269C274.996 208.473 274.592 209.036 274.055 209.581C273.518 210.126 272.844 210.574 272.035 210.923C271.225 211.273 270.275 211.447 269.184 211.447ZM269.491 209.364C270.701 209.364 271.749 209.095 272.636 208.558C273.522 208.021 274.204 207.31 274.681 206.423C275.167 205.528 275.41 204.544 275.41 203.47V200.632C275.239 200.794 274.954 200.939 274.553 201.067C274.161 201.195 273.705 201.31 273.185 201.412C272.674 201.506 272.163 201.587 271.651 201.655C271.14 201.723 270.68 201.783 270.271 201.834C269.163 201.97 268.217 202.183 267.433 202.473C266.648 202.763 266.048 203.163 265.63 203.675C265.212 204.178 265.004 204.825 265.004 205.618C265.004 206.811 265.43 207.736 266.282 208.392C267.134 209.04 268.204 209.364 269.491 209.364ZM281.808 211V208.852H282.422C283.121 208.852 283.683 208.724 284.109 208.469C284.544 208.205 284.881 207.761 285.119 207.139C285.358 206.517 285.537 205.669 285.656 204.595C285.776 203.521 285.869 202.175 285.938 200.555L286.359 191.364H298.837V211H296.548V193.511H288.52L288.149 201.322C288.072 202.916 287.945 204.318 287.766 205.528C287.595 206.739 287.314 207.749 286.922 208.558C286.538 209.368 286.001 209.977 285.311 210.386C284.629 210.795 283.734 211 282.626 211H281.808ZM310.352 211.447C309.167 211.447 308.085 211.217 307.105 210.757C306.125 210.288 305.345 209.615 304.765 208.737C304.186 207.851 303.896 206.777 303.896 205.516C303.896 204.544 304.079 203.726 304.446 203.061C304.812 202.396 305.332 201.851 306.005 201.425C306.679 200.999 307.475 200.662 308.396 200.415C309.316 200.168 310.331 199.976 311.439 199.839C312.538 199.703 313.467 199.584 314.225 199.482C314.993 199.379 315.576 199.217 315.977 198.996C316.377 198.774 316.578 198.416 316.578 197.922V197.462C316.578 196.124 316.177 195.071 315.376 194.304C314.583 193.528 313.441 193.141 311.95 193.141C310.535 193.141 309.38 193.452 308.485 194.074C307.599 194.696 306.977 195.429 306.619 196.273L304.458 195.493C304.902 194.419 305.515 193.562 306.299 192.923C307.083 192.276 307.961 191.811 308.933 191.53C309.904 191.24 310.889 191.095 311.886 191.095C312.636 191.095 313.416 191.193 314.225 191.389C315.044 191.585 315.802 191.926 316.501 192.412C317.2 192.889 317.767 193.558 318.201 194.419C318.636 195.271 318.853 196.354 318.853 197.666V211H316.578V207.893H316.437C316.164 208.473 315.76 209.036 315.223 209.581C314.686 210.126 314.012 210.574 313.203 210.923C312.393 211.273 311.443 211.447 310.352 211.447ZM310.659 209.364C311.869 209.364 312.917 209.095 313.804 208.558C314.69 208.021 315.372 207.31 315.849 206.423C316.335 205.528 316.578 204.544 316.578 203.47V200.632C316.407 200.794 316.122 200.939 315.721 201.067C315.329 201.195 314.873 201.31 314.353 201.412C313.842 201.506 313.331 201.587 312.819 201.655C312.308 201.723 311.848 201.783 311.439 201.834C310.331 201.97 309.385 202.183 308.6 202.473C307.816 202.763 307.216 203.163 306.798 203.675C306.38 204.178 306.172 204.825 306.172 205.618C306.172 206.811 306.598 207.736 307.45 208.392C308.302 209.04 309.372 209.364 310.659 209.364ZM326.313 191.364L331.375 199.737L336.438 191.364H339.084L332.769 201.182L339.084 211H336.438L331.375 202.895L326.313 211H323.679L329.918 201.182L323.679 191.364H326.313ZM347.64 207.42L347.41 208.788C347.265 209.709 347.06 210.723 346.796 211.831C346.532 212.939 346.259 213.991 345.978 214.989C345.697 215.986 345.454 216.787 345.249 217.392H343.498C343.609 216.813 343.749 216.075 343.92 215.18C344.099 214.286 344.282 213.293 344.469 212.202C344.657 211.119 344.827 210.003 344.981 208.852L345.16 207.42H347.64ZM45.7132 255V235.364H53.4476C55.5357 235.364 57.1806 235.815 58.3823 236.719C59.5925 237.622 60.1976 238.841 60.1976 240.375C60.1976 241.543 59.861 242.476 59.1877 243.175C58.5144 243.874 57.611 244.368 56.4775 244.658C57.236 244.786 57.9391 245.062 58.5868 245.489C59.2431 245.915 59.7757 246.477 60.1848 247.176C60.5939 247.875 60.7985 248.71 60.7985 249.682C60.7985 250.705 60.5428 251.616 60.0314 252.418C59.5201 253.219 58.7999 253.849 57.8709 254.31C56.9419 254.77 55.8425 255 54.5726 255H45.7132ZM47.8865 252.891H54.5726C55.7743 252.891 56.7246 252.584 57.4235 251.97C58.1223 251.348 58.4718 250.521 58.4718 249.49C58.4718 248.391 58.1394 247.513 57.4746 246.857C56.8184 246.192 55.9363 245.859 54.8283 245.859H47.8865V252.891ZM47.8865 243.839H53.5882C54.4746 243.839 55.2417 243.703 55.8894 243.43C56.5371 243.158 57.0357 242.774 57.3851 242.28C57.7431 241.777 57.9178 241.189 57.9093 240.516C57.9093 239.553 57.5172 238.807 56.7331 238.278C55.949 237.741 54.8539 237.473 53.4476 237.473H47.8865V243.839ZM67.3727 262.364C66.921 262.364 66.4991 262.321 66.1071 262.236C65.715 262.151 65.4039 262.057 65.1738 261.955L65.7875 259.947C66.563 260.186 67.2534 260.271 67.8585 260.203C68.4636 260.143 69.0005 259.871 69.4693 259.385C69.938 258.908 70.3556 258.175 70.7221 257.186L71.438 255.192L64.215 235.364H66.6824L72.5119 251.996H72.6909L78.5204 235.364H80.9877L72.6781 258.107C72.3287 259.053 71.8983 259.841 71.3869 260.472C70.8755 261.111 70.2832 261.584 69.6099 261.891C68.9451 262.206 68.1994 262.364 67.3727 262.364ZM81.8571 255V252.852H82.4707C83.1696 252.852 83.7321 252.724 84.1582 252.469C84.5929 252.205 84.9295 251.761 85.1681 251.139C85.4068 250.517 85.5858 249.669 85.7051 248.595C85.8244 247.521 85.9181 246.175 85.9863 244.555L86.4082 235.364H98.8855V255H96.5971V237.511H88.5687L88.198 245.322C88.1213 246.916 87.9934 248.318 87.8145 249.528C87.644 250.739 87.3627 251.749 86.9707 252.558C86.5872 253.368 86.0502 253.977 85.3599 254.386C84.6781 254.795 83.7832 255 82.6752 255H81.8571ZM104.916 255V235.364H107.192V244.197H109.327L116.627 235.364H119.567L111.692 244.811L119.746 255H116.806L110.03 246.345H107.192V255H104.916ZM128.963 255.447C127.779 255.447 126.696 255.217 125.716 254.757C124.736 254.288 123.956 253.615 123.377 252.737C122.797 251.851 122.507 250.777 122.507 249.516C122.507 248.544 122.691 247.726 123.057 247.061C123.423 246.396 123.943 245.851 124.617 245.425C125.29 244.999 126.087 244.662 127.007 244.415C127.928 244.168 128.942 243.976 130.05 243.839C131.149 243.703 132.078 243.584 132.837 243.482C133.604 243.379 134.188 243.217 134.588 242.996C134.989 242.774 135.189 242.416 135.189 241.922V241.462C135.189 240.124 134.789 239.071 133.987 238.304C133.195 237.528 132.053 237.141 130.561 237.141C129.146 237.141 127.992 237.452 127.097 238.074C126.21 238.696 125.588 239.429 125.23 240.273L123.07 239.493C123.513 238.419 124.127 237.562 124.911 236.923C125.695 236.276 126.573 235.811 127.544 235.53C128.516 235.24 129.5 235.095 130.497 235.095C131.247 235.095 132.027 235.193 132.837 235.389C133.655 235.585 134.414 235.926 135.112 236.412C135.811 236.889 136.378 237.558 136.813 238.419C137.247 239.271 137.465 240.354 137.465 241.666V255H135.189V251.893H135.048C134.776 252.473 134.371 253.036 133.834 253.581C133.297 254.126 132.624 254.574 131.814 254.923C131.004 255.273 130.054 255.447 128.963 255.447ZM129.27 253.364C130.48 253.364 131.529 253.095 132.415 252.558C133.301 252.021 133.983 251.31 134.46 250.423C134.946 249.528 135.189 248.544 135.189 247.47V244.632C135.019 244.794 134.733 244.939 134.333 245.067C133.941 245.195 133.485 245.31 132.965 245.412C132.453 245.506 131.942 245.587 131.431 245.655C130.919 245.723 130.459 245.783 130.05 245.834C128.942 245.97 127.996 246.183 127.212 246.473C126.428 246.763 125.827 247.163 125.409 247.675C124.992 248.178 124.783 248.825 124.783 249.618C124.783 250.811 125.209 251.736 126.061 252.392C126.914 253.04 127.983 253.364 129.27 253.364ZM156.775 244.121V246.268L145.231 246.268V244.121L156.775 244.121ZM145.794 235.364V255H143.518V235.364H145.794ZM158.45 235.364V255H156.174V235.364H158.45ZM169.991 255.447C168.806 255.447 167.724 255.217 166.743 254.757C165.763 254.288 164.983 253.615 164.404 252.737C163.824 251.851 163.535 250.777 163.535 249.516C163.535 248.544 163.718 247.726 164.084 247.061C164.451 246.396 164.971 245.851 165.644 245.425C166.317 244.999 167.114 244.662 168.035 244.415C168.955 244.168 169.969 243.976 171.077 243.839C172.177 243.703 173.106 243.584 173.864 243.482C174.631 243.379 175.215 243.217 175.616 242.996C176.016 242.774 176.216 242.416 176.216 241.922V241.462C176.216 240.124 175.816 239.071 175.015 238.304C174.222 237.528 173.08 237.141 171.589 237.141C170.174 237.141 169.019 237.452 168.124 238.074C167.238 238.696 166.616 239.429 166.258 240.273L164.097 239.493C164.54 238.419 165.154 237.562 165.938 236.923C166.722 236.276 167.6 235.811 168.572 235.53C169.543 235.24 170.528 235.095 171.525 235.095C172.275 235.095 173.055 235.193 173.864 235.389C174.682 235.585 175.441 235.926 176.14 236.412C176.839 236.889 177.405 237.558 177.84 238.419C178.275 239.271 178.492 240.354 178.492 241.666L178.492 255H176.216V251.893H176.076C175.803 252.473 175.398 253.036 174.861 253.581C174.324 254.126 173.651 254.574 172.841 254.923C172.032 255.273 171.081 255.447 169.991 255.447ZM170.297 253.364C171.508 253.364 172.556 253.095 173.442 252.558C174.329 252.021 175.01 251.31 175.488 250.423C175.974 249.528 176.216 248.544 176.216 247.47L176.216 244.632C176.046 244.794 175.76 244.939 175.36 245.067C174.968 245.195 174.512 245.31 173.992 245.412C173.481 245.506 172.969 245.587 172.458 245.655C171.947 245.723 171.486 245.783 171.077 245.834C169.969 245.97 169.023 246.183 168.239 246.473C167.455 246.763 166.854 247.163 166.437 247.675C166.019 248.178 165.81 248.825 165.81 249.618C165.81 250.811 166.236 251.736 167.089 252.392C167.941 253.04 169.01 253.364 170.297 253.364ZM185.952 235.364L191.014 243.737L196.077 235.364H198.723L192.407 245.182L198.723 255H196.077L191.014 246.895L185.952 255H183.318L189.557 245.182L183.318 235.364H185.952ZM215.895 251.766L226.263 235.364H228.986L228.986 255H226.71L226.71 238.598L216.381 255H213.619L213.619 235.364H215.895L215.895 251.766ZM245.145 255L245.145 235.364H260.013V255H257.725V237.511H247.433L247.433 255H245.145ZM273.976 255.409C272.144 255.409 270.559 254.983 269.221 254.131C267.883 253.27 266.847 252.081 266.114 250.564C265.39 249.038 265.028 247.283 265.028 245.297C265.028 243.32 265.39 241.564 266.114 240.03C266.847 238.487 267.857 237.281 269.144 236.412C270.439 235.534 271.935 235.095 273.631 235.095C274.697 235.095 275.724 235.291 276.712 235.683C277.701 236.067 278.587 236.659 279.371 237.46C280.164 238.253 280.79 239.254 281.251 240.464C281.711 241.666 281.941 243.089 281.941 244.734V245.859H266.6V243.852H279.614C279.614 242.591 279.358 241.457 278.847 240.452C278.344 239.437 277.641 238.636 276.738 238.048C275.843 237.46 274.807 237.166 273.631 237.166C272.387 237.166 271.292 237.499 270.346 238.163C269.4 238.828 268.658 239.706 268.121 240.797C267.593 241.888 267.324 243.081 267.316 244.376V245.578C267.316 247.138 267.584 248.501 268.121 249.669C268.667 250.828 269.438 251.727 270.435 252.366C271.432 253.006 272.613 253.325 273.976 253.325C274.905 253.325 275.719 253.18 276.418 252.891C277.126 252.601 277.718 252.213 278.195 251.727C278.681 251.233 279.047 250.692 279.295 250.104L281.455 250.807C281.157 251.634 280.667 252.396 279.985 253.095C279.312 253.794 278.468 254.357 277.454 254.783C276.448 255.2 275.289 255.409 273.976 255.409ZM312.345 252.852L311.987 260.638H309.737V255H307.282V252.852H312.345ZM286.955 235.364H289.231V252.852H297.285V235.364H299.561V252.852H307.615V235.364H309.89V255H286.955V235.364ZM324.742 255.409C322.91 255.409 321.324 254.983 319.986 254.131C318.648 253.27 317.613 252.081 316.88 250.564C316.155 249.038 315.793 247.283 315.793 245.297C315.793 243.32 316.155 241.564 316.88 240.03C317.613 238.487 318.623 237.281 319.91 236.412C321.205 235.534 322.701 235.095 324.397 235.095C325.462 235.095 326.489 235.291 327.478 235.683C328.466 236.067 329.353 236.659 330.137 237.46C330.93 238.253 331.556 239.254 332.016 240.464C332.476 241.666 332.706 243.089 332.706 244.734V245.859H317.366V243.852H330.38C330.38 242.591 330.124 241.457 329.613 240.452C329.11 239.437 328.407 238.636 327.503 238.048C326.608 237.46 325.573 237.166 324.397 237.166C323.153 237.166 322.057 237.499 321.111 238.163C320.165 238.828 319.424 239.706 318.887 240.797C318.358 241.888 318.09 243.081 318.081 244.376V245.578C318.081 247.138 318.35 248.501 318.887 249.669C319.432 250.828 320.204 251.727 321.201 252.366C322.198 253.006 323.378 253.325 324.742 253.325C325.671 253.325 326.485 253.18 327.184 252.891C327.891 252.601 328.483 252.213 328.961 251.727C329.447 251.233 329.813 250.692 330.06 250.104L332.221 250.807C331.922 251.634 331.432 252.396 330.751 253.095C330.077 253.794 329.233 254.357 328.219 254.783C327.214 255.2 326.055 255.409 324.742 255.409ZM337.721 262.364V235.364H339.933V239.109H340.201C340.474 238.521 340.849 237.92 341.326 237.307C341.803 236.685 342.434 236.161 343.218 235.734C344.011 235.308 345.008 235.095 346.21 235.095C347.829 235.095 349.244 235.521 350.454 236.374C351.673 237.217 352.619 238.402 353.292 239.928C353.974 241.445 354.315 243.213 354.315 245.233C354.315 247.261 353.974 249.038 353.292 250.564C352.619 252.089 351.673 253.278 350.454 254.131C349.244 254.983 347.838 255.409 346.235 255.409C345.051 255.409 344.058 255.196 343.257 254.77C342.464 254.344 341.82 253.82 341.326 253.197C340.84 252.567 340.465 251.953 340.201 251.357H339.997V262.364H337.721ZM339.971 245.195C339.971 246.78 340.205 248.186 340.674 249.413C341.151 250.632 341.833 251.591 342.72 252.29C343.615 252.98 344.697 253.325 345.967 253.325C347.271 253.325 348.37 252.967 349.265 252.251C350.169 251.527 350.855 250.551 351.323 249.324C351.801 248.097 352.039 246.72 352.039 245.195C352.039 243.686 351.805 242.327 351.336 241.116C350.876 239.906 350.194 238.947 349.291 238.24C348.387 237.524 347.279 237.166 345.967 237.166C344.688 237.166 343.602 237.511 342.707 238.202C341.812 238.884 341.13 239.83 340.661 241.04C340.201 242.241 339.971 243.626 339.971 245.195ZM364.791 255.447C363.607 255.447 362.524 255.217 361.544 254.757C360.564 254.288 359.784 253.615 359.205 252.737C358.625 251.851 358.335 250.777 358.335 249.516C358.335 248.544 358.519 247.726 358.885 247.061C359.252 246.396 359.771 245.851 360.445 245.425C361.118 244.999 361.915 244.662 362.835 244.415C363.756 244.168 364.77 243.976 365.878 243.839C366.977 243.703 367.906 243.584 368.665 243.482C369.432 243.379 370.016 243.217 370.416 242.996C370.817 242.774 371.017 242.416 371.017 241.922V241.462C371.017 240.124 370.617 239.071 369.816 238.304C369.023 237.528 367.881 237.141 366.389 237.141C364.975 237.141 363.82 237.452 362.925 238.074C362.039 238.696 361.416 239.429 361.058 240.273L358.898 239.493C359.341 238.419 359.955 237.562 360.739 236.923C361.523 236.276 362.401 235.811 363.372 235.53C364.344 235.24 365.328 235.095 366.325 235.095C367.075 235.095 367.855 235.193 368.665 235.389C369.483 235.585 370.242 235.926 370.941 236.412C371.639 236.889 372.206 237.558 372.641 238.419C373.075 239.271 373.293 240.354 373.293 241.666V255H371.017V251.893H370.877C370.604 252.473 370.199 253.036 369.662 253.581C369.125 254.126 368.452 254.574 367.642 254.923C366.833 255.273 365.882 255.447 364.791 255.447ZM365.098 253.364C366.308 253.364 367.357 253.095 368.243 252.558C369.129 252.021 369.811 251.31 370.289 250.423C370.774 249.528 371.017 248.544 371.017 247.47V244.632C370.847 244.794 370.561 244.939 370.161 245.067C369.769 245.195 369.313 245.31 368.793 245.412C368.281 245.506 367.77 245.587 367.259 245.655C366.747 245.723 366.287 245.783 365.878 245.834C364.77 245.97 363.824 246.183 363.04 246.473C362.256 246.763 361.655 247.163 361.237 247.675C360.82 248.178 360.611 248.825 360.611 249.618C360.611 250.811 361.037 251.736 361.889 252.392C362.742 253.04 363.811 253.364 365.098 253.364ZM380.752 235.364L385.815 243.737L390.877 235.364H393.524L387.208 245.182L393.524 255H390.877L385.815 246.895L380.752 255H378.119L384.357 245.182L378.119 235.364H380.752Z" fill="#69615A"/>
</svg>
