<svg width="1280.000000" height="443.195312" viewBox="0 0 1280 443.195" fill="none" xmlns="http://www.w3.org/2000/svg" xmlns:xlink="http://www.w3.org/1999/xlink">
	<desc>
			Created with Pixso.
	</desc>
	<defs/>
	<path id="Rectangle 1" d="M0 188.19L181 0.69L384 248.19L612.5 67.69L770 188.19L1078.5 0.69L1280 188.19L1280 443.19L0 443.19L0 188.19Z" fill="#69615A" fill-opacity="1.000000" fill-rule="nonzero"/>
	<path id="0.27" d="M1116.56 8.97C1116.56 14.67 1114.35 17.93 1110.5 17.93C1106.65 17.93 1104.43 14.67 1104.43 8.97C1104.43 3.31 1106.68 0 1110.5 0C1114.31 0 1116.56 3.31 1116.56 8.97ZM1136.81 17.69L1125.8 17.69L1125.8 16.16L1131.56 9.85C1133.59 7.64 1134.54 6.45 1134.54 4.84C1134.54 3 1133.09 1.84 1131.19 1.84C1129.17 1.84 1127.88 3.16 1127.88 5.15L1125.88 5.15C1125.88 2.08 1128.19 0 1131.26 0C1134.32 0 1136.51 2.15 1136.51 4.84C1136.51 6.77 1135.62 8.27 1132.62 11.49L1128.71 15.68L1128.71 15.82L1136.81 15.82L1136.81 17.69ZM1143.09 17.69L1140.87 17.69L1148.68 2.25L1148.68 2.11L1139.68 2.11L1139.68 0.24L1150.86 0.24L1150.86 2.22L1143.09 17.69ZM1106.47 8.97C1106.47 13.51 1107.96 16.06 1110.5 16.06C1113.04 16.06 1114.53 13.51 1114.53 8.97C1114.53 4.43 1113.03 1.84 1110.5 1.84C1107.97 1.84 1106.47 4.43 1106.47 8.97ZM1122.23 16.29C1122.23 17.13 1121.53 17.83 1120.68 17.83C1119.85 17.83 1119.16 17.13 1119.16 16.29C1119.16 15.45 1119.85 14.76 1120.68 14.76C1121.53 14.76 1122.23 15.45 1122.23 16.29Z" fill="#FFFFFF" fill-opacity="1.000000" fill-rule="evenodd"/>
	<path id="0.32" d="M117.57 8.97C117.57 14.67 115.35 17.93 111.5 17.93C107.65 17.93 105.43 14.67 105.43 8.97C105.43 3.31 107.68 0 111.5 0C115.32 0 117.57 3.31 117.57 8.97ZM137.95 12.95C137.95 15.81 135.43 17.93 132.05 17.93C128.67 17.93 126.25 16.07 126.12 13.33L128.27 13.33C128.4 15.01 130 16.06 132.02 16.06C134.26 16.06 135.87 14.8 135.87 12.95C135.87 11.03 134.4 9.68 131.75 9.68L130.35 9.68L130.35 7.81L131.75 7.81C133.82 7.81 135.26 6.61 135.26 4.77C135.26 3.01 134.01 1.84 132.09 1.84C130.27 1.84 128.62 2.86 128.54 4.6L126.5 4.6C126.6 1.85 129.11 0 132.12 0C135.35 0 137.3 2.2 137.3 4.66C137.3 6.63 136.2 8.09 134.44 8.62L134.44 8.76C136.63 9.12 137.95 10.74 137.95 12.95ZM152.44 17.69L141.42 17.69L141.42 16.16L147.19 9.85C149.21 7.64 150.16 6.45 150.16 4.84C150.16 3 148.71 1.84 146.82 1.84C144.79 1.84 143.5 3.16 143.5 5.15L141.5 5.15C141.5 2.08 143.82 0 146.88 0C149.95 0 152.13 2.15 152.13 4.84C152.13 6.77 151.25 8.27 148.25 11.49L144.33 15.68L144.33 15.82L152.44 15.82L152.44 17.69ZM107.47 8.97C107.47 13.51 108.96 16.06 111.5 16.06C114.03 16.06 115.52 13.51 115.52 8.97C115.52 4.43 114.02 1.84 111.5 1.84C108.97 1.84 107.47 4.43 107.47 8.97ZM123.22 16.29C123.22 17.13 122.53 17.83 121.69 17.83C120.84 17.83 120.16 17.13 120.16 16.29C120.16 15.45 120.84 14.76 121.69 14.76C122.53 14.76 123.22 15.45 123.22 16.29Z" fill="#FFFFFF" fill-opacity="1.000000" fill-rule="evenodd"/>
</svg>
