<svg width="1280.000000" height="335.695312" viewBox="0 0 1280 335.695" fill="none" xmlns="http://www.w3.org/2000/svg" xmlns:xlink="http://www.w3.org/1999/xlink">
	<desc>
			Created with Pixso.
	</desc>
	<defs/>
	<path id="Rectangle 2" d="M0 225.19L389 6.69L725 198.19L988 41.69L1280 225.19L1280 335.69L0 335.69L0 225.19Z" fill="#B15C23" fill-opacity="1.000000" fill-rule="nonzero"/>
	<path id="0.13" d="M428.57 8.97C428.57 14.67 426.35 17.93 422.5 17.93C418.65 17.93 416.43 14.67 416.43 8.97C416.43 3.31 418.68 0 422.5 0C426.32 0 428.57 3.31 428.57 8.97ZM458.66 12.95C458.66 15.81 456.15 17.93 452.77 17.93C449.38 17.93 446.96 16.07 446.84 13.33L448.98 13.33C449.11 15.01 450.71 16.06 452.73 16.06C454.98 16.06 456.59 14.8 456.59 12.95C456.59 11.03 455.11 9.68 452.46 9.68L451.06 9.68L451.06 7.81L452.46 7.81C454.53 7.81 455.97 6.61 455.97 4.77C455.97 3.01 454.73 1.84 452.8 1.84C450.99 1.84 449.34 2.86 449.26 4.6L447.21 4.6C447.31 1.85 449.82 0 452.84 0C456.07 0 458.02 2.2 458.02 4.66C458.02 6.63 456.92 8.09 455.15 8.62L455.15 8.76C457.35 9.12 458.66 10.74 458.66 12.95ZM439.75 0.24L441.86 0.24L441.86 17.69L439.75 17.69L439.75 2.45L439.64 2.45L435.38 5.28L435.38 3.14L439.75 0.24ZM418.47 8.97C418.47 13.51 419.96 16.06 422.5 16.06C425.03 16.06 426.52 13.51 426.52 8.97C426.52 4.43 425.02 1.84 422.5 1.84C419.97 1.84 418.47 4.43 418.47 8.97ZM434.22 16.29C434.22 17.13 433.53 17.83 432.69 17.83C431.84 17.83 431.16 17.13 431.16 16.29C431.16 15.45 431.84 14.76 432.69 14.76C433.53 14.76 434.22 15.45 434.22 16.29Z" fill="#FFFFFF" fill-opacity="1.000000" fill-rule="evenodd"/>
</svg>
